<?xml version="1.0" encoding="UTF-8"?>
<!DOCTYPE svg PUBLIC "-//W3C//DTD SVG 1.1//EN" "http://www.w3.org/Graphics/SVG/1.1/DTD/svg11.dtd">
<!-- Creator: CorelDRAW X7 -->
<svg xmlns="http://www.w3.org/2000/svg" xml:space="preserve" width="86.0762mm" height="55.0762mm" version="1.1" style="shape-rendering:geometricPrecision; text-rendering:geometricPrecision; image-rendering:optimizeQuality; fill-rule:evenodd; clip-rule:evenodd"
viewBox="0 0 8608 5508"
 xmlns:xlink="http://www.w3.org/1999/xlink">
 <defs>
  <style type="text/css">
   <![CDATA[
    .str0 {stroke:#373435;stroke-width:7.62}
    .fil2 {fill:none}
    .fil1 {fill:none;fill-rule:nonzero}
    .fil4 {fill:#D2D3D5;fill-rule:nonzero}
    .fil0 {fill:#606062;fill-rule:nonzero}
    .fil6 {fill:#373435;fill-rule:nonzero}
    .fil5 {fill:#373435;fill-rule:nonzero}
    .fil3 {fill:#ED6E00;fill-rule:nonzero}
   ]]>
  </style>
 </defs>
 <g id="Layer_x0020_1">
  <metadata id="CorelCorpID_0Corel-Layer"/>
  <g id="_2248850317920">
   <path class="fil0" d="M7596 114c-18,90 -176,303 -176,414 0,98 79,177 176,177 97,0 176,-79 176,-177 0,-123 -157,-296 -176,-414z"/>
   <path class="fil0" d="M6756 816c-28,138 -269,463 -269,632 0,148 121,269 269,269 148,0 269,-121 269,-269 0,-189 -240,-452 -269,-632z"/>
   <path class="fil0" d="M7698 1668c-39,195 -381,657 -381,897 0,210 172,382 381,382 210,0 382,-172 382,-382 0,-268 -340,-642 -382,-897z"/>
   <path class="fil0" d="M6877 2684c-50,253 -493,850 -493,1161 0,273 222,495 493,495 272,0 494,-222 494,-495 0,-347 -440,-830 -494,-1161z"/>
   <polygon class="fil1" points="8304,5254 304,5254 304,365 8304,365 "/>
   <rect class="fil2 str0" x="4" y="4" width="8600" height="5500" rx="340" ry="340"/>
   <path class="fil3" d="M968 5254l598 0 7038 0 0 -516 -7577 0 -59 0 0 4c-178,19 -330,122 -413,268 -91,-162 -268,-272 -471,-272 -28,0 -54,2 -80,6l0 510 485 0 133 0 346 0z"/>
   <g>
    <g>
     <polygon class="fil4" points="288,4581 237,4581 237,4343 288,4343 288,4436 359,4436 359,4343 410,4343 410,4581 359,4581 359,4487 288,4487 "/>
     <path class="fil4" d="M485 4479l57 -20 0 -2c-1,-4 -4,-6 -9,-7 0,0 -1,0 -2,0l-31 0c-1,0 -3,0 -5,1 -4,1 -7,3 -9,6 0,1 -1,2 -1,4l0 18zm-44 55l0 -90c0,-3 0,-6 0,-9 3,-11 8,-19 15,-25 7,-5 16,-8 28,-8l61 0c2,0 5,1 8,1 11,2 19,5 24,11 6,6 9,14 10,24 0,1 0,4 0,7l0 36 -101 39 0 3c0,3 1,6 2,9 2,2 4,3 7,3l92 0 0 46 -98 0c-8,0 -13,-1 -16,-1 -4,-1 -8,-2 -11,-4 -8,-5 -13,-10 -17,-16 -3,-7 -4,-15 -4,-26z"/>
     <polygon class="fil4" points="616,4581 661,4581 661,4336 616,4336 "/>
     <polygon class="fil4" points="736,4581 691,4581 691,4336 736,4336 736,4402 766,4402 766,4448 736,4448 "/>
     <path class="fil4" d="M923 4479l56 -20 0 -2c0,-4 -3,-6 -8,-7 -1,0 -1,0 -2,0l-32 0c-1,0 -2,0 -5,1 -4,1 -7,3 -8,6 -1,1 -1,2 -1,4l0 18zm-45 55l0 -90c0,-3 0,-6 1,-9 2,-11 7,-19 14,-25 7,-5 17,-8 29,-8l61 0c1,0 4,1 8,1 10,2 18,5 23,11 6,6 9,14 11,24 0,1 0,4 0,7l0 36 -102 39 0 3c0,3 1,6 3,9 1,2 4,3 6,3l93 0 0 46 -99 0c-7,0 -12,-1 -16,-1 -4,-1 -7,-2 -11,-4 -7,-5 -13,-10 -16,-16 -3,-7 -5,-15 -5,-26z"/>
     <path class="fil4" d="M1098 4581l-45 0 0 -136c0,-2 1,-5 1,-8 2,-12 6,-20 13,-26 7,-6 16,-9 29,-9l62 0c12,0 22,3 29,9 6,6 11,14 12,26 1,3 1,6 1,8l0 136 -45 0 0 -121c0,-1 0,-2 0,-3 -1,-3 -2,-5 -4,-7 -2,-2 -6,-2 -11,-2l-27 0c-5,0 -8,0 -11,2 -2,2 -3,4 -4,7l0 124z"/>
     <path class="fil4" d="M1280 4502l47 79 53 0 -55 -93 50 -86 -52 0 -42 71c-2,4 -3,7 -4,11 0,8 1,14 3,18zm-4 -166l-45 0 0 245 45 0 0 -245z"/>
     <path class="fil4" d="M1444 4479l56 -20 0 -2c0,-4 -3,-6 -8,-7 -1,0 -2,0 -2,0l-32 0c-1,0 -2,0 -5,1 -4,1 -7,3 -8,6 -1,1 -1,2 -1,4l0 18zm-45 55l0 -90c0,-3 0,-6 1,-9 2,-11 7,-19 14,-25 7,-5 17,-8 29,-8l61 0c1,0 4,1 8,1 10,2 18,5 23,11 6,6 9,14 11,24 0,1 0,4 0,7l0 36 -102 39 0 3c0,3 1,6 3,9 1,2 4,3 6,3l93 0 0 46 -99 0c-7,0 -13,-1 -16,-1 -4,-1 -7,-2 -11,-4 -7,-5 -13,-10 -16,-16 -4,-7 -5,-15 -5,-26z"/>
     <polygon class="fil4" points="1574,4581 1619,4581 1619,4336 1574,4336 "/>
     <polygon class="fil4" points="1695,4581 1650,4581 1650,4336 1695,4336 1695,4402 1725,4402 1725,4448 1695,4448 "/>
    </g>
    <g>
     <polygon class="fil4" points="288,3765 237,3765 237,3527 288,3527 288,3620 359,3620 359,3527 410,3527 410,3765 359,3765 359,3671 288,3671 "/>
     <path class="fil4" d="M485 3664l57 -21 0 -2c-1,-3 -4,-6 -9,-7 0,0 -1,0 -2,0l-31 0c-1,0 -3,0 -5,1 -4,1 -7,3 -9,6 0,1 -1,3 -1,4l0 19zm-44 55l0 -91c0,-3 0,-6 0,-9 3,-11 8,-19 15,-24 7,-6 16,-8 28,-8l61 0c2,0 5,0 8,0 11,2 19,6 24,11 6,6 9,14 10,24 0,2 0,4 0,8l0 35 -101 39 0 3c0,4 1,7 2,9 2,3 4,4 7,4l92 0 0 45 -98 0c-8,0 -13,0 -16,-1 -4,-1 -8,-2 -11,-4 -8,-4 -13,-10 -17,-16 -3,-6 -4,-15 -4,-25z"/>
     <polygon class="fil4" points="616,3765 661,3765 661,3520 616,3520 "/>
     <polygon class="fil4" points="736,3765 691,3765 691,3520 736,3520 736,3587 766,3587 766,3632 736,3632 "/>
     <path class="fil4" d="M923 3664l56 -21 0 -2c0,-3 -3,-6 -8,-7 -1,0 -1,0 -2,0l-32 0c-1,0 -2,0 -5,1 -4,1 -7,3 -8,6 -1,1 -1,3 -1,4l0 19zm-45 55l0 -91c0,-3 0,-6 1,-9 2,-11 7,-19 14,-24 7,-6 17,-8 29,-8l61 0c1,0 4,0 8,0 10,2 18,6 23,11 6,6 9,14 11,24 0,2 0,4 0,8l0 35 -102 39 0 3c0,4 1,7 3,9 1,3 4,4 6,4l93 0 0 45 -99 0c-7,0 -12,0 -16,-1 -4,-1 -7,-2 -11,-4 -7,-4 -13,-10 -16,-16 -3,-6 -5,-15 -5,-25z"/>
     <path class="fil4" d="M1098 3765l-45 0 0 -136c0,-2 1,-4 1,-8 2,-11 6,-20 13,-26 7,-5 16,-8 29,-8l62 0c12,0 22,3 29,8 6,6 11,15 12,26 1,3 1,6 1,8l0 136 -45 0 0 -121c0,-1 0,-2 0,-2 -1,-4 -2,-6 -4,-8 -2,-1 -6,-2 -11,-2l-27 0c-5,0 -8,1 -11,2 -2,2 -3,4 -4,8l0 123z"/>
     <path class="fil4" d="M1280 3686l47 79 53 0 -55 -92 50 -86 -52 0 -42 71c-2,3 -3,7 -4,10 0,9 1,15 3,18zm-4 -166l-45 0 0 245 45 0 0 -245z"/>
     <path class="fil4" d="M1444 3664l56 -21 0 -2c0,-3 -3,-6 -8,-7 -1,0 -2,0 -2,0l-32 0c-1,0 -2,0 -5,1 -4,1 -7,3 -8,6 -1,1 -1,3 -1,4l0 19zm-45 55l0 -91c0,-3 0,-6 1,-9 2,-11 7,-19 14,-24 7,-6 17,-8 29,-8l61 0c1,0 4,0 8,0 10,2 18,6 23,11 6,6 9,14 11,24 0,2 0,4 0,8l0 35 -102 39 0 3c0,4 1,7 3,9 1,3 4,4 6,4l93 0 0 45 -99 0c-7,0 -13,0 -16,-1 -4,-1 -7,-2 -11,-4 -7,-4 -13,-10 -16,-16 -4,-6 -5,-15 -5,-25z"/>
     <polygon class="fil4" points="1574,3765 1619,3765 1619,3520 1574,3520 "/>
     <polygon class="fil4" points="1695,3765 1650,3765 1650,3520 1695,3520 1695,3587 1725,3587 1725,3632 1695,3632 "/>
    </g>
    <g>
     <polygon class="fil4" points="288,2949 237,2949 237,2711 288,2711 288,2804 359,2804 359,2711 410,2711 410,2949 359,2949 359,2855 288,2855 "/>
     <path class="fil4" d="M485 2848l57 -21 0 -1c-1,-4 -4,-6 -9,-7 0,0 -1,0 -2,0l-31 0c-1,0 -3,0 -5,0 -4,2 -7,4 -9,6 0,2 -1,3 -1,5l0 18zm-44 55l0 -90c0,-3 0,-6 0,-9 3,-11 8,-20 15,-25 7,-5 16,-8 28,-8l61 0c2,0 5,0 8,1 11,1 19,5 24,11 6,5 9,13 10,24 0,1 0,4 0,7l0 36 -101 38 0 4c0,3 1,6 2,9 2,2 4,3 7,3l92 0 0 45 -98 0c-8,0 -13,0 -16,-1 -4,0 -8,-2 -11,-4 -8,-4 -13,-9 -17,-16 -3,-6 -4,-14 -4,-25z"/>
     <polygon class="fil4" points="616,2949 661,2949 661,2704 616,2704 "/>
     <polygon class="fil4" points="736,2949 691,2949 691,2704 736,2704 736,2771 766,2771 766,2816 736,2816 "/>
     <path class="fil4" d="M923 2848l56 -21 0 -1c0,-4 -3,-6 -8,-7 -1,0 -1,0 -2,0l-32 0c-1,0 -2,0 -5,0 -4,2 -7,4 -8,6 -1,2 -1,3 -1,5l0 18zm-45 55l0 -90c0,-3 0,-6 1,-9 2,-11 7,-20 14,-25 7,-5 17,-8 29,-8l61 0c1,0 4,0 8,1 10,1 18,5 23,11 6,5 9,13 11,24 0,1 0,4 0,7l0 36 -102 38 0 4c0,3 1,6 3,9 1,2 4,3 6,3l93 0 0 45 -99 0c-7,0 -12,0 -16,-1 -4,0 -7,-2 -11,-4 -7,-4 -13,-9 -16,-16 -3,-6 -5,-14 -5,-25z"/>
     <path class="fil4" d="M1098 2949l-45 0 0 -135c0,-2 1,-5 1,-8 2,-12 6,-21 13,-26 7,-6 16,-9 29,-9l62 0c12,0 22,3 29,9 6,5 11,14 12,25 1,4 1,7 1,9l0 135 -45 0 0 -120c0,-1 0,-2 0,-3 -1,-3 -2,-6 -4,-7 -2,-2 -6,-3 -11,-3l-27 0c-5,0 -8,1 -11,3 -2,1 -3,4 -4,7l0 123z"/>
     <path class="fil4" d="M1280 2870l47 79 53 0 -55 -92 50 -86 -52 0 -42 71c-2,4 -3,7 -4,11 0,8 1,14 3,17zm-4 -166l-45 0 0 245 45 0 0 -245z"/>
     <path class="fil4" d="M1444 2848l56 -21 0 -1c0,-4 -3,-6 -8,-7 -1,0 -2,0 -2,0l-32 0c-1,0 -2,0 -5,0 -4,2 -7,4 -8,6 -1,2 -1,3 -1,5l0 18zm-45 55l0 -90c0,-3 0,-6 1,-9 2,-11 7,-20 14,-25 7,-5 17,-8 29,-8l61 0c1,0 4,0 8,1 10,1 18,5 23,11 6,5 9,13 11,24 0,1 0,4 0,7l0 36 -102 38 0 4c0,3 1,6 3,9 1,2 4,3 6,3l93 0 0 45 -99 0c-7,0 -13,0 -16,-1 -4,0 -7,-2 -11,-4 -7,-4 -13,-9 -16,-16 -4,-6 -5,-14 -5,-25z"/>
     <polygon class="fil4" points="1574,2949 1619,2949 1619,2704 1574,2704 "/>
     <polygon class="fil4" points="1695,2949 1650,2949 1650,2704 1695,2704 1695,2771 1725,2771 1725,2816 1695,2816 "/>
    </g>
    <g>
     <polygon class="fil4" points="288,2134 237,2134 237,1896 288,1896 288,1989 359,1989 359,1896 410,1896 410,2134 359,2134 359,2040 288,2040 "/>
     <path class="fil4" d="M485 2033l57 -21 0 -2c-1,-4 -4,-6 -9,-7 0,0 -1,0 -2,0l-31 0c-1,0 -3,0 -5,1 -4,1 -7,3 -9,6 0,1 -1,2 -1,4l0 19zm-44 55l0 -91c0,-3 0,-6 0,-9 3,-11 8,-19 15,-25 7,-5 16,-8 28,-8l61 0c2,0 5,1 8,1 11,2 19,5 24,11 6,6 9,14 10,24 0,2 0,4 0,8l0 35 -101 39 0 3c0,3 1,7 2,9 2,2 4,3 7,3l92 0 0 46 -98 0c-8,0 -13,-1 -16,-1 -4,-1 -8,-2 -11,-4 -8,-5 -13,-10 -17,-16 -3,-7 -4,-15 -4,-25z"/>
     <polygon class="fil4" points="616,2134 661,2134 661,1889 616,1889 "/>
     <polygon class="fil4" points="736,2134 691,2134 691,1889 736,1889 736,1955 766,1955 766,2001 736,2001 "/>
     <path class="fil4" d="M923 2033l56 -21 0 -2c0,-4 -3,-6 -8,-7 -1,0 -1,0 -2,0l-32 0c-1,0 -2,0 -5,1 -4,1 -7,3 -8,6 -1,1 -1,2 -1,4l0 19zm-45 55l0 -91c0,-3 0,-6 1,-9 2,-11 7,-19 14,-25 7,-5 17,-8 29,-8l61 0c1,0 4,1 8,1 10,2 18,5 23,11 6,6 9,14 11,24 0,2 0,4 0,8l0 35 -102 39 0 3c0,3 1,7 3,9 1,2 4,3 6,3l93 0 0 46 -99 0c-7,0 -12,-1 -16,-1 -4,-1 -7,-2 -11,-4 -7,-5 -13,-10 -16,-16 -3,-7 -5,-15 -5,-25z"/>
     <path class="fil4" d="M1098 2134l-45 0 0 -136c0,-2 1,-5 1,-8 2,-12 6,-20 13,-26 7,-6 16,-9 29,-9l62 0c12,0 22,3 29,9 6,6 11,14 12,26 1,3 1,6 1,8l0 136 -45 0 0 -121c0,-1 0,-2 0,-2 -1,-4 -2,-6 -4,-8 -2,-2 -6,-2 -11,-2l-27 0c-5,0 -8,0 -11,2 -2,2 -3,4 -4,8l0 123z"/>
     <path class="fil4" d="M1280 2055l47 79 53 0 -55 -93 50 -86 -52 0 -42 71c-2,4 -3,8 -4,11 0,9 1,14 3,18zm-4 -166l-45 0 0 245 45 0 0 -245z"/>
     <path class="fil4" d="M1444 2033l56 -21 0 -2c0,-4 -3,-6 -8,-7 -1,0 -2,0 -2,0l-32 0c-1,0 -2,0 -5,1 -4,1 -7,3 -8,6 -1,1 -1,2 -1,4l0 19zm-45 55l0 -91c0,-3 0,-6 1,-9 2,-11 7,-19 14,-25 7,-5 17,-8 29,-8l61 0c1,0 4,1 8,1 10,2 18,5 23,11 6,6 9,14 11,24 0,2 0,4 0,8l0 35 -102 39 0 3c0,3 1,7 3,9 1,2 4,3 6,3l93 0 0 46 -99 0c-7,0 -13,-1 -16,-1 -4,-1 -7,-2 -11,-4 -7,-5 -13,-10 -16,-16 -4,-7 -5,-15 -5,-25z"/>
     <polygon class="fil4" points="1574,2134 1619,2134 1619,1889 1574,1889 "/>
     <polygon class="fil4" points="1695,2134 1650,2134 1650,1889 1695,1889 1695,1955 1725,1955 1725,2001 1695,2001 "/>
    </g>
    <g>
     <polygon class="fil4" points="288,1318 237,1318 237,1080 288,1080 288,1173 359,1173 359,1080 410,1080 410,1318 359,1318 359,1224 288,1224 "/>
     <path class="fil4" d="M485 1217l57 -21 0 -2c-1,-3 -4,-6 -9,-6 0,-1 -1,-1 -2,-1l-31 0c-1,0 -3,1 -5,1 -4,1 -7,3 -9,6 0,1 -1,3 -1,5l0 18zm-44 55l0 -91c0,-3 0,-6 0,-8 3,-12 8,-20 15,-25 7,-6 16,-8 28,-8l61 0c2,0 5,0 8,0 11,2 19,6 24,11 6,6 9,14 10,24 0,2 0,4 0,8l0 36 -101 38 0 3c0,4 1,7 2,9 2,3 4,4 7,4l92 0 0 45 -98 0c-8,0 -13,0 -16,-1 -4,-1 -8,-2 -11,-4 -8,-4 -13,-10 -17,-16 -3,-6 -4,-15 -4,-25z"/>
     <polygon class="fil4" points="616,1318 661,1318 661,1073 616,1073 "/>
     <polygon class="fil4" points="736,1318 691,1318 691,1073 736,1073 736,1140 766,1140 766,1185 736,1185 "/>
     <path class="fil4" d="M923 1217l56 -21 0 -2c0,-3 -3,-6 -8,-6 -1,-1 -1,-1 -2,-1l-32 0c-1,0 -2,1 -5,1 -4,1 -7,3 -8,6 -1,1 -1,3 -1,5l0 18zm-45 55l0 -91c0,-3 0,-6 1,-8 2,-12 7,-20 14,-25 7,-6 17,-8 29,-8l61 0c1,0 4,0 8,0 10,2 18,6 23,11 6,6 9,14 11,24 0,2 0,4 0,8l0 36 -102 38 0 3c0,4 1,7 3,9 1,3 4,4 6,4l93 0 0 45 -99 0c-7,0 -12,0 -16,-1 -4,-1 -7,-2 -11,-4 -7,-4 -13,-10 -16,-16 -3,-6 -5,-15 -5,-25z"/>
     <path class="fil4" d="M1098 1318l-45 0 0 -136c0,-2 1,-4 1,-8 2,-11 6,-20 13,-26 7,-5 16,-8 29,-8l62 0c12,0 22,3 29,8 6,6 11,15 12,26 1,4 1,6 1,8l0 136 -45 0 0 -121c0,-1 0,-1 0,-2 -1,-4 -2,-6 -4,-8 -2,-1 -6,-2 -11,-2l-27 0c-5,0 -8,1 -11,2 -2,2 -3,4 -4,8l0 123z"/>
     <path class="fil4" d="M1280 1239l47 79 53 0 -55 -92 50 -86 -52 0 -42 71c-2,3 -3,7 -4,11 0,8 1,14 3,17zm-4 -166l-45 0 0 245 45 0 0 -245z"/>
     <path class="fil4" d="M1444 1217l56 -21 0 -2c0,-3 -3,-6 -8,-6 -1,-1 -2,-1 -2,-1l-32 0c-1,0 -2,1 -5,1 -4,1 -7,3 -8,6 -1,1 -1,3 -1,5l0 18zm-45 55l0 -91c0,-3 0,-6 1,-8 2,-12 7,-20 14,-25 7,-6 17,-8 29,-8l61 0c1,0 4,0 8,0 10,2 18,6 23,11 6,6 9,14 11,24 0,2 0,4 0,8l0 36 -102 38 0 3c0,4 1,7 3,9 1,3 4,4 6,4l93 0 0 45 -99 0c-7,0 -13,0 -16,-1 -4,-1 -7,-2 -11,-4 -7,-4 -13,-10 -16,-16 -4,-6 -5,-15 -5,-25z"/>
     <polygon class="fil4" points="1574,1318 1619,1318 1619,1073 1574,1073 "/>
     <polygon class="fil4" points="1695,1318 1650,1318 1650,1073 1695,1073 1695,1140 1725,1140 1725,1185 1695,1185 "/>
    </g>
    <g>
     <polygon class="fil4" points="288,502 237,502 237,265 288,265 288,358 359,358 359,265 410,265 410,502 359,502 359,409 288,409 "/>
     <path class="fil4" d="M485 401l57 -21 0 -1c-1,-4 -4,-6 -9,-7 0,0 -1,0 -2,0l-31 0c-1,0 -3,0 -5,1 -4,1 -7,3 -9,5 0,2 -1,3 -1,5l0 18zm-44 55l0 -90c0,-3 0,-6 0,-9 3,-11 8,-20 15,-25 7,-5 16,-8 28,-8l61 0c2,0 5,0 8,1 11,1 19,5 24,11 6,6 9,14 10,24 0,1 0,4 0,7l0 36 -101 39 0 3c0,3 1,6 2,9 2,2 4,3 7,3l92 0 0 45 -98 0c-8,0 -13,0 -16,-1 -4,0 -8,-2 -11,-4 -8,-4 -13,-9 -17,-15 -3,-7 -4,-15 -4,-26z"/>
     <polygon class="fil4" points="616,502 661,502 661,257 616,257 "/>
     <polygon class="fil4" points="736,502 691,502 691,257 736,257 736,324 766,324 766,369 736,369 "/>
     <path class="fil4" d="M923 401l56 -21 0 -1c0,-4 -3,-6 -8,-7 -1,0 -1,0 -2,0l-32 0c-1,0 -2,0 -5,1 -4,1 -7,3 -8,5 -1,2 -1,3 -1,5l0 18zm-45 55l0 -90c0,-3 0,-6 1,-9 2,-11 7,-20 14,-25 7,-5 17,-8 29,-8l61 0c1,0 4,0 8,1 10,1 18,5 23,11 6,6 9,14 11,24 0,1 0,4 0,7l0 36 -102 39 0 3c0,3 1,6 3,9 1,2 4,3 6,3l93 0 0 45 -99 0c-7,0 -12,0 -16,-1 -4,0 -7,-2 -11,-4 -7,-4 -13,-9 -16,-15 -3,-7 -5,-15 -5,-26z"/>
     <path class="fil4" d="M1098 502l-45 0 0 -135c0,-2 1,-5 1,-8 2,-12 6,-21 13,-26 7,-6 16,-9 29,-9l62 0c12,0 22,3 29,9 6,6 11,14 12,25 1,4 1,7 1,9l0 135 -45 0 0 -120c0,-1 0,-2 0,-3 -1,-3 -2,-6 -4,-7 -2,-2 -6,-3 -11,-3l-27 0c-5,0 -8,1 -11,3 -2,1 -3,4 -4,7l0 123z"/>
     <path class="fil4" d="M1280 424l47 78 53 0 -55 -92 50 -86 -52 0 -42 71c-2,4 -3,7 -4,11 0,8 1,14 3,18zm-4 -167l-45 0 0 245 45 0 0 -245z"/>
     <path class="fil4" d="M1444 401l56 -21 0 -1c0,-4 -3,-6 -8,-7 -1,0 -2,0 -2,0l-32 0c-1,0 -2,0 -5,1 -4,1 -7,3 -8,5 -1,2 -1,3 -1,5l0 18zm-45 55l0 -90c0,-3 0,-6 1,-9 2,-11 7,-20 14,-25 7,-5 17,-8 29,-8l61 0c1,0 4,0 8,1 10,1 18,5 23,11 6,6 9,14 11,24 0,1 0,4 0,7l0 36 -102 39 0 3c0,3 1,6 3,9 1,2 4,3 6,3l93 0 0 45 -99 0c-7,0 -13,0 -16,-1 -4,0 -7,-2 -11,-4 -7,-4 -13,-9 -16,-15 -4,-7 -5,-15 -5,-26z"/>
     <polygon class="fil4" points="1574,502 1619,502 1619,257 1574,257 "/>
     <polygon class="fil4" points="1695,502 1650,502 1650,257 1695,257 1695,324 1725,324 1725,369 1695,369 "/>
    </g>
   </g>
   <g>
    <g>
     <polygon class="fil4" points="1944,4173 1893,4173 1893,3935 1944,3935 1944,4028 2015,4028 2015,3935 2066,3935 2066,4173 2015,4173 2015,4079 1944,4079 "/>
     <path class="fil4" d="M2142 4072l56 -21 0 -2c-1,-4 -3,-6 -8,-7 -1,0 -2,0 -3,0l-31 0c-1,0 -2,0 -5,1 -4,1 -7,3 -8,6 -1,1 -1,3 -1,4l0 19zm-45 55l0 -91c0,-3 0,-6 1,-9 2,-11 7,-19 14,-25 7,-5 17,-7 29,-7l61 0c1,0 4,0 7,0 11,2 19,5 24,11 6,6 9,14 10,24 1,2 1,4 1,8l0 35 -102 39 0 3c0,4 1,7 3,9 1,2 3,4 6,4l92 0 0 45 -98 0c-7,0 -13,-1 -16,-1 -4,-1 -7,-2 -11,-4 -8,-5 -13,-10 -16,-16 -4,-6 -5,-15 -5,-25z"/>
     <polygon class="fil4" points="2272,4173 2317,4173 2317,3928 2272,3928 "/>
     <polygon class="fil4" points="2393,4173 2348,4173 2348,3928 2393,3928 2393,3995 2423,3995 2423,4040 2393,4040 "/>
     <path class="fil4" d="M2579 4072l57 -21 0 -2c-1,-4 -4,-6 -9,-7 0,0 -1,0 -2,0l-32 0c0,0 -2,0 -5,1 -4,1 -6,3 -8,6 -1,1 -1,3 -1,4l0 19zm-45 55l0 -91c0,-3 0,-6 1,-9 3,-11 7,-19 14,-25 7,-5 17,-7 29,-7l61 0c2,0 4,0 8,0 10,2 18,5 24,11 5,6 9,14 10,24 0,2 0,4 0,8l0 35 -101 39 0 3c0,4 0,7 2,9 2,2 4,4 6,4l93 0 0 45 -99 0c-7,0 -12,-1 -16,-1 -3,-1 -7,-2 -10,-4 -8,-5 -14,-10 -17,-16 -3,-6 -5,-15 -5,-25z"/>
     <path class="fil4" d="M2754 4173l-44 0 0 -136c0,-2 0,-5 0,-8 2,-12 6,-20 13,-26 7,-6 16,-8 29,-8l62 0c12,0 22,2 29,8 7,6 11,14 13,26 0,3 0,6 0,8l0 136 -45 0 0 -121c0,-1 0,-2 0,-2 0,-4 -2,-6 -4,-8 -2,-1 -6,-2 -10,-2l-28 0c-5,0 -8,1 -10,2 -3,2 -4,4 -5,8l0 123z"/>
     <path class="fil4" d="M2937 4094l46 79 53 0 -55 -93 50 -85 -52 0 -41 70c-2,4 -4,8 -5,11 0,9 2,14 4,18zm-5 -166l-45 0 0 245 45 0 0 -245z"/>
     <path class="fil4" d="M3100 4072l57 -21 0 -2c-1,-4 -4,-6 -9,-7 -1,0 -1,0 -2,0l-32 0c0,0 -2,0 -5,1 -4,1 -7,3 -8,6 -1,1 -1,3 -1,4l0 19zm-45 55l0 -91c0,-3 0,-6 1,-9 3,-11 7,-19 14,-25 7,-5 17,-7 29,-7l61 0c2,0 4,0 8,0 10,2 18,5 24,11 5,6 9,14 10,24 0,2 0,4 0,8l0 35 -101 39 0 3c0,4 0,7 2,9 2,2 4,4 6,4l93 0 0 45 -99 0c-7,0 -12,-1 -16,-1 -3,-1 -7,-2 -10,-4 -8,-5 -14,-10 -17,-16 -3,-6 -5,-15 -5,-25z"/>
     <polygon class="fil4" points="3231,4173 3275,4173 3275,3928 3231,3928 "/>
     <polygon class="fil4" points="3351,4173 3306,4173 3306,3928 3351,3928 3351,3995 3381,3995 3381,4040 3351,4040 "/>
    </g>
    <g>
     <polygon class="fil4" points="1944,3357 1893,3357 1893,3119 1944,3119 1944,3212 2015,3212 2015,3119 2066,3119 2066,3357 2015,3357 2015,3263 1944,3263 "/>
     <path class="fil4" d="M2142 3256l56 -21 0 -1c-1,-4 -3,-7 -8,-7 -1,-1 -2,-1 -3,-1l-31 0c-1,0 -2,1 -5,1 -4,1 -7,3 -8,6 -1,1 -1,3 -1,5l0 18zm-45 55l0 -91c0,-3 0,-6 1,-8 2,-12 7,-20 14,-25 7,-5 17,-8 29,-8l61 0c1,0 4,0 7,1 11,1 19,5 24,11 6,5 9,13 10,23 1,2 1,4 1,8l0 36 -102 38 0 3c0,4 1,7 3,9 1,3 3,4 6,4l92 0 0 45 -98 0c-7,0 -13,0 -16,-1 -4,-1 -7,-2 -11,-4 -8,-4 -13,-9 -16,-16 -4,-6 -5,-14 -5,-25z"/>
     <polygon class="fil4" points="2272,3357 2317,3357 2317,3112 2272,3112 "/>
     <polygon class="fil4" points="2393,3357 2348,3357 2348,3112 2393,3112 2393,3179 2423,3179 2423,3224 2393,3224 "/>
     <path class="fil4" d="M2579 3256l57 -21 0 -1c-1,-4 -4,-7 -9,-7 0,-1 -1,-1 -2,-1l-32 0c0,0 -2,1 -5,1 -4,1 -6,3 -8,6 -1,1 -1,3 -1,5l0 18zm-45 55l0 -91c0,-3 0,-6 1,-8 3,-12 7,-20 14,-25 7,-5 17,-8 29,-8l61 0c2,0 4,0 8,1 10,1 18,5 24,11 5,5 9,13 10,23 0,2 0,4 0,8l0 36 -101 38 0 3c0,4 0,7 2,9 2,3 4,4 6,4l93 0 0 45 -99 0c-7,0 -12,0 -16,-1 -3,-1 -7,-2 -10,-4 -8,-4 -14,-9 -17,-16 -3,-6 -5,-14 -5,-25z"/>
     <path class="fil4" d="M2754 3357l-44 0 0 -136c0,-2 0,-4 0,-8 2,-11 6,-20 13,-26 7,-5 16,-8 29,-8l62 0c12,0 22,3 29,8 7,6 11,15 13,26 0,4 0,6 0,8l0 136 -45 0 0 -120c0,-2 0,-2 0,-3 0,-3 -2,-6 -4,-8 -2,-1 -6,-2 -10,-2l-28 0c-5,0 -8,1 -10,2 -3,2 -4,5 -5,8l0 123z"/>
     <path class="fil4" d="M2937 3278l46 79 53 0 -55 -92 50 -86 -52 0 -41 71c-2,3 -4,7 -5,11 0,8 2,14 4,17zm-5 -166l-45 0 0 245 45 0 0 -245z"/>
     <path class="fil4" d="M3100 3256l57 -21 0 -1c-1,-4 -4,-7 -9,-7 -1,-1 -1,-1 -2,-1l-32 0c0,0 -2,1 -5,1 -4,1 -7,3 -8,6 -1,1 -1,3 -1,5l0 18zm-45 55l0 -91c0,-3 0,-6 1,-8 3,-12 7,-20 14,-25 7,-5 17,-8 29,-8l61 0c2,0 4,0 8,1 10,1 18,5 24,11 5,5 9,13 10,23 0,2 0,4 0,8l0 36 -101 38 0 3c0,4 0,7 2,9 2,3 4,4 6,4l93 0 0 45 -99 0c-7,0 -12,0 -16,-1 -3,-1 -7,-2 -10,-4 -8,-4 -14,-9 -17,-16 -3,-6 -5,-14 -5,-25z"/>
     <polygon class="fil4" points="3231,3357 3275,3357 3275,3112 3231,3112 "/>
     <polygon class="fil4" points="3351,3357 3306,3357 3306,3112 3351,3112 3351,3179 3381,3179 3381,3224 3351,3224 "/>
    </g>
    <g>
     <polygon class="fil4" points="1944,2542 1893,2542 1893,2304 1944,2304 1944,2397 2015,2397 2015,2304 2066,2304 2066,2542 2015,2542 2015,2448 1944,2448 "/>
     <path class="fil4" d="M2142 2440l56 -21 0 -1c-1,-4 -3,-6 -8,-7 -1,0 -2,0 -3,0l-31 0c-1,0 -2,0 -5,1 -4,1 -7,3 -8,6 -1,1 -1,2 -1,4l0 18zm-45 55l0 -90c0,-3 0,-6 1,-9 2,-11 7,-19 14,-25 7,-5 17,-8 29,-8l61 0c1,0 4,0 7,1 11,1 19,5 24,11 6,6 9,14 10,24 1,1 1,4 1,7l0 36 -102 39 0 3c0,3 1,6 3,9 1,2 3,3 6,3l92 0 0 46 -98 0c-7,0 -13,-1 -16,-2 -4,0 -7,-2 -11,-3 -8,-5 -13,-10 -16,-16 -4,-7 -5,-15 -5,-26z"/>
     <polygon class="fil4" points="2272,2542 2317,2542 2317,2296 2272,2296 "/>
     <polygon class="fil4" points="2393,2542 2348,2542 2348,2296 2393,2296 2393,2363 2423,2363 2423,2408 2393,2408 "/>
     <path class="fil4" d="M2579 2440l57 -21 0 -1c-1,-4 -4,-6 -9,-7 0,0 -1,0 -2,0l-32 0c0,0 -2,0 -5,1 -4,1 -6,3 -8,6 -1,1 -1,2 -1,4l0 18zm-45 55l0 -90c0,-3 0,-6 1,-9 3,-11 7,-19 14,-25 7,-5 17,-8 29,-8l61 0c2,0 4,0 8,1 10,1 18,5 24,11 5,6 9,14 10,24 0,1 0,4 0,7l0 36 -101 39 0 3c0,3 0,6 2,9 2,2 4,3 6,3l93 0 0 46 -99 0c-7,0 -12,-1 -16,-2 -3,0 -7,-2 -10,-3 -8,-5 -14,-10 -17,-16 -3,-7 -5,-15 -5,-26z"/>
     <path class="fil4" d="M2754 2542l-44 0 0 -136c0,-2 0,-5 0,-8 2,-12 6,-20 13,-26 7,-6 16,-9 29,-9l62 0c12,0 22,3 29,9 7,6 11,14 13,26 0,3 0,6 0,8l0 136 -45 0 0 -121c0,-1 0,-2 0,-3 0,-3 -2,-6 -4,-7 -2,-2 -6,-3 -10,-3l-28 0c-5,0 -8,1 -10,3 -3,1 -4,4 -5,7l0 124z"/>
     <path class="fil4" d="M2937 2463l46 79 53 0 -55 -93 50 -86 -52 0 -41 71c-2,4 -4,7 -5,11 0,8 2,14 4,18zm-5 -167l-45 0 0 246 45 0 0 -246z"/>
     <path class="fil4" d="M3100 2440l57 -21 0 -1c-1,-4 -4,-6 -9,-7 -1,0 -1,0 -2,0l-32 0c0,0 -2,0 -5,1 -4,1 -7,3 -8,6 -1,1 -1,2 -1,4l0 18zm-45 55l0 -90c0,-3 0,-6 1,-9 3,-11 7,-19 14,-25 7,-5 17,-8 29,-8l61 0c2,0 4,0 8,1 10,1 18,5 24,11 5,6 9,14 10,24 0,1 0,4 0,7l0 36 -101 39 0 3c0,3 0,6 2,9 2,2 4,3 6,3l93 0 0 46 -99 0c-7,0 -12,-1 -16,-2 -3,0 -7,-2 -10,-3 -8,-5 -14,-10 -17,-16 -3,-7 -5,-15 -5,-26z"/>
     <polygon class="fil4" points="3231,2542 3275,2542 3275,2296 3231,2296 "/>
     <polygon class="fil4" points="3351,2542 3306,2542 3306,2296 3351,2296 3351,2363 3381,2363 3381,2408 3351,2408 "/>
    </g>
    <g>
     <polygon class="fil4" points="1944,1726 1893,1726 1893,1488 1944,1488 1944,1581 2015,1581 2015,1488 2066,1488 2066,1726 2015,1726 2015,1632 1944,1632 "/>
     <path class="fil4" d="M2142 1625l56 -21 0 -2c-1,-3 -3,-6 -8,-7 -1,0 -2,0 -3,0l-31 0c-1,0 -2,0 -5,1 -4,1 -7,3 -8,6 -1,1 -1,3 -1,4l0 19zm-45 55l0 -91c0,-3 0,-6 1,-9 2,-11 7,-19 14,-24 7,-6 17,-8 29,-8l61 0c1,0 4,0 7,0 11,2 19,6 24,11 6,6 9,14 10,24 1,2 1,4 1,8l0 35 -102 39 0 3c0,4 1,7 3,9 1,2 3,4 6,4l92 0 0 45 -98 0c-7,0 -13,0 -16,-1 -4,-1 -7,-2 -11,-4 -8,-4 -13,-10 -16,-16 -4,-6 -5,-15 -5,-25z"/>
     <polygon class="fil4" points="2272,1726 2317,1726 2317,1481 2272,1481 "/>
     <polygon class="fil4" points="2393,1726 2348,1726 2348,1481 2393,1481 2393,1548 2423,1548 2423,1593 2393,1593 "/>
     <path class="fil4" d="M2579 1625l57 -21 0 -2c-1,-3 -4,-6 -9,-7 0,0 -1,0 -2,0l-32 0c0,0 -2,0 -5,1 -4,1 -6,3 -8,6 -1,1 -1,3 -1,4l0 19zm-45 55l0 -91c0,-3 0,-6 1,-9 3,-11 7,-19 14,-24 7,-6 17,-8 29,-8l61 0c2,0 4,0 8,0 10,2 18,6 24,11 5,6 9,14 10,24 0,2 0,4 0,8l0 35 -101 39 0 3c0,4 0,7 2,9 2,2 4,4 6,4l93 0 0 45 -99 0c-7,0 -12,0 -16,-1 -3,-1 -7,-2 -10,-4 -8,-4 -14,-10 -17,-16 -3,-6 -5,-15 -5,-25z"/>
     <path class="fil4" d="M2754 1726l-44 0 0 -136c0,-2 0,-5 0,-8 2,-11 6,-20 13,-26 7,-6 16,-8 29,-8l62 0c12,0 22,2 29,8 7,6 11,15 13,26 0,3 0,6 0,8l0 136 -45 0 0 -121c0,-1 0,-2 0,-2 0,-4 -2,-6 -4,-8 -2,-1 -6,-2 -10,-2l-28 0c-5,0 -8,1 -10,2 -3,2 -4,4 -5,8l0 123z"/>
     <path class="fil4" d="M2937 1647l46 79 53 0 -55 -92 50 -86 -52 0 -41 71c-2,3 -4,7 -5,10 0,9 2,15 4,18zm-5 -166l-45 0 0 245 45 0 0 -245z"/>
     <path class="fil4" d="M3100 1625l57 -21 0 -2c-1,-3 -4,-6 -9,-7 -1,0 -1,0 -2,0l-32 0c0,0 -2,0 -5,1 -4,1 -7,3 -8,6 -1,1 -1,3 -1,4l0 19zm-45 55l0 -91c0,-3 0,-6 1,-9 3,-11 7,-19 14,-24 7,-6 17,-8 29,-8l61 0c2,0 4,0 8,0 10,2 18,6 24,11 5,6 9,14 10,24 0,2 0,4 0,8l0 35 -101 39 0 3c0,4 0,7 2,9 2,2 4,4 6,4l93 0 0 45 -99 0c-7,0 -12,0 -16,-1 -3,-1 -7,-2 -10,-4 -8,-4 -14,-10 -17,-16 -3,-6 -5,-15 -5,-25z"/>
     <polygon class="fil4" points="3231,1726 3275,1726 3275,1481 3231,1481 "/>
     <polygon class="fil4" points="3351,1726 3306,1726 3306,1481 3351,1481 3351,1548 3381,1548 3381,1593 3351,1593 "/>
    </g>
    <g>
     <polygon class="fil4" points="1944,910 1893,910 1893,672 1944,672 1944,765 2015,765 2015,672 2066,672 2066,910 2015,910 2015,816 1944,816 "/>
     <path class="fil4" d="M2142 809l56 -21 0 -1c-1,-4 -3,-6 -8,-7 -1,0 -2,-1 -3,-1l-31 0c-1,0 -2,1 -5,1 -4,2 -7,4 -8,6 -1,2 -1,3 -1,5l0 18zm-45 55l0 -91c0,-2 0,-5 1,-8 2,-11 7,-20 14,-25 7,-5 17,-8 29,-8l61 0c1,0 4,0 7,1 11,1 19,5 24,11 6,5 9,13 10,24 1,1 1,4 1,7l0 36 -102 38 0 3c0,4 1,7 3,9 1,3 3,4 6,4l92 0 0 45 -98 0c-7,0 -13,0 -16,-1 -4,0 -7,-2 -11,-4 -8,-4 -13,-9 -16,-16 -4,-6 -5,-14 -5,-25z"/>
     <polygon class="fil4" points="2272,910 2317,910 2317,665 2272,665 "/>
     <polygon class="fil4" points="2393,910 2348,910 2348,665 2393,665 2393,732 2423,732 2423,777 2393,777 "/>
     <path class="fil4" d="M2579 809l57 -21 0 -1c-1,-4 -4,-6 -9,-7 0,0 -1,-1 -2,-1l-32 0c0,0 -2,1 -5,1 -4,2 -6,4 -8,6 -1,2 -1,3 -1,5l0 18zm-45 55l0 -91c0,-2 0,-5 1,-8 3,-11 7,-20 14,-25 7,-5 17,-8 29,-8l61 0c2,0 4,0 8,1 10,1 18,5 24,11 5,5 9,13 10,24 0,1 0,4 0,7l0 36 -101 38 0 3c0,4 0,7 2,9 2,3 4,4 6,4l93 0 0 45 -99 0c-7,0 -12,0 -16,-1 -3,0 -7,-2 -10,-4 -8,-4 -14,-9 -17,-16 -3,-6 -5,-14 -5,-25z"/>
     <path class="fil4" d="M2754 910l-44 0 0 -135c0,-2 0,-5 0,-9 2,-11 6,-20 13,-25 7,-6 16,-9 29,-9l62 0c12,0 22,3 29,9 7,5 11,14 13,25 0,4 0,6 0,8l0 136 -45 0 0 -120c0,-1 0,-2 0,-3 0,-3 -2,-6 -4,-7 -2,-2 -6,-3 -10,-3l-28 0c-5,0 -8,1 -10,3 -3,1 -4,4 -5,7l0 123z"/>
     <path class="fil4" d="M2937 831l46 79 53 0 -55 -92 50 -86 -52 0 -41 71c-2,4 -4,7 -5,11 0,8 2,14 4,17zm-5 -166l-45 0 0 245 45 0 0 -245z"/>
     <path class="fil4" d="M3100 809l57 -21 0 -1c-1,-4 -4,-6 -9,-7 -1,0 -1,-1 -2,-1l-32 0c0,0 -2,1 -5,1 -4,2 -7,4 -8,6 -1,2 -1,3 -1,5l0 18zm-45 55l0 -91c0,-2 0,-5 1,-8 3,-11 7,-20 14,-25 7,-5 17,-8 29,-8l61 0c2,0 4,0 8,1 10,1 18,5 24,11 5,5 9,13 10,24 0,1 0,4 0,7l0 36 -101 38 0 3c0,4 0,7 2,9 2,3 4,4 6,4l93 0 0 45 -99 0c-7,0 -12,0 -16,-1 -3,0 -7,-2 -10,-4 -8,-4 -14,-9 -17,-16 -3,-6 -5,-14 -5,-25z"/>
     <polygon class="fil4" points="3231,910 3275,910 3275,665 3231,665 "/>
     <polygon class="fil4" points="3351,910 3306,910 3306,665 3351,665 3351,732 3381,732 3381,777 3351,777 "/>
    </g>
   </g>
   <g>
    <g>
     <polygon class="fil4" points="3600,4581 3549,4581 3549,4343 3600,4343 3600,4436 3671,4436 3671,4343 3722,4343 3722,4581 3671,4581 3671,4487 3600,4487 "/>
     <path class="fil4" d="M3798 4479l56 -20 0 -2c0,-4 -3,-6 -8,-7 -1,0 -1,0 -2,0l-32 0c-1,0 -2,0 -5,1 -4,1 -7,3 -8,6 -1,1 -1,2 -1,4l0 18zm-45 55l0 -90c0,-3 0,-6 1,-9 3,-11 7,-19 14,-25 7,-5 17,-8 29,-8l61 0c1,0 4,1 8,1 10,2 18,5 24,11 5,6 8,14 10,24 0,1 0,4 0,7l0 36 -101 39 0 3c0,3 0,6 2,9 2,2 4,3 6,3l93 0 0 46 -99 0c-7,0 -12,-1 -16,-1 -4,-1 -7,-2 -10,-4 -8,-5 -14,-10 -17,-16 -3,-7 -5,-15 -5,-26z"/>
     <polygon class="fil4" points="3928,4581 3973,4581 3973,4336 3928,4336 "/>
     <polygon class="fil4" points="4049,4581 4004,4581 4004,4336 4049,4336 4049,4402 4079,4402 4079,4448 4049,4448 "/>
     <path class="fil4" d="M4235 4479l57 -20 0 -2c-1,-4 -4,-6 -9,-7 0,0 -1,0 -2,0l-31 0c-1,0 -3,0 -5,1 -4,1 -7,3 -9,6 0,1 -1,2 -1,4l0 18zm-45 55l0 -90c0,-3 1,-6 1,-9 3,-11 8,-19 15,-25 7,-5 16,-8 28,-8l61 0c2,0 4,1 8,1 10,2 18,5 24,11 5,6 9,14 10,24 0,1 0,4 0,7l0 36 -101 39 0 3c0,3 1,6 2,9 2,2 4,3 7,3l92 0 0 46 -98 0c-8,0 -13,-1 -17,-1 -3,-1 -7,-2 -10,-4 -8,-5 -13,-10 -17,-16 -3,-7 -5,-15 -5,-26z"/>
     <path class="fil4" d="M4411 4581l-45 0 0 -136c0,-2 0,-5 0,-8 2,-12 7,-20 13,-26 7,-6 17,-9 29,-9l62 0c13,0 22,3 29,9 7,6 11,14 13,26 0,3 0,6 0,8l0 136 -44 0 0 -121c0,-1 -1,-2 -1,-3 0,-3 -1,-5 -4,-7 -2,-2 -5,-2 -10,-2l-28 0c-4,0 -8,0 -10,2 -2,2 -4,4 -4,7l0 124z"/>
     <path class="fil4" d="M4593 4502l47 79 52 0 -55 -93 50 -86 -52 0 -41 71c-2,4 -4,7 -4,11 0,8 1,14 3,18zm-5 -166l-45 0 0 245 45 0 0 -245z"/>
     <path class="fil4" d="M4756 4479l57 -20 0 -2c-1,-4 -4,-6 -9,-7 0,0 -1,0 -2,0l-31 0c-1,0 -3,0 -5,1 -4,1 -7,3 -9,6 0,1 -1,2 -1,4l0 18zm-45 55l0 -90c0,-3 1,-6 1,-9 3,-11 8,-19 15,-25 7,-5 16,-8 28,-8l61 0c2,0 4,1 8,1 10,2 18,5 24,11 5,6 9,14 10,24 0,1 0,4 0,7l0 36 -101 39 0 3c0,3 1,6 2,9 2,2 4,3 7,3l92 0 0 46 -99 0c-7,0 -12,-1 -16,-1 -3,-1 -7,-2 -10,-4 -8,-5 -14,-10 -17,-16 -3,-7 -5,-15 -5,-26z"/>
     <polygon class="fil4" points="4887,4581 4932,4581 4932,4336 4887,4336 "/>
     <polygon class="fil4" points="5007,4581 4962,4581 4962,4336 5007,4336 5007,4402 5037,4402 5037,4448 5007,4448 "/>
    </g>
    <g>
     <polygon class="fil4" points="3600,3765 3549,3765 3549,3527 3600,3527 3600,3620 3671,3620 3671,3527 3722,3527 3722,3765 3671,3765 3671,3671 3600,3671 "/>
     <path class="fil4" d="M3798 3664l56 -21 0 -2c0,-3 -3,-6 -8,-7 -1,0 -1,0 -2,0l-32 0c-1,0 -2,0 -5,1 -4,1 -7,3 -8,6 -1,1 -1,3 -1,4l0 19zm-45 55l0 -91c0,-3 0,-6 1,-9 3,-11 7,-19 14,-24 7,-6 17,-8 29,-8l61 0c1,0 4,0 8,0 10,2 18,6 24,11 5,6 8,14 10,24 0,2 0,4 0,8l0 35 -101 39 0 3c0,4 0,7 2,9 2,3 4,4 6,4l93 0 0 45 -99 0c-7,0 -12,0 -16,-1 -4,-1 -7,-2 -10,-4 -8,-4 -14,-10 -17,-16 -3,-6 -5,-15 -5,-25z"/>
     <polygon class="fil4" points="3928,3765 3973,3765 3973,3520 3928,3520 "/>
     <polygon class="fil4" points="4049,3765 4004,3765 4004,3520 4049,3520 4049,3587 4079,3587 4079,3632 4049,3632 "/>
     <path class="fil4" d="M4235 3664l57 -21 0 -2c-1,-3 -4,-6 -9,-7 0,0 -1,0 -2,0l-31 0c-1,0 -3,0 -5,1 -4,1 -7,3 -9,6 0,1 -1,3 -1,4l0 19zm-45 55l0 -91c0,-3 1,-6 1,-9 3,-11 8,-19 15,-24 7,-6 16,-8 28,-8l61 0c2,0 4,0 8,0 10,2 18,6 24,11 5,6 9,14 10,24 0,2 0,4 0,8l0 35 -101 39 0 3c0,4 1,7 2,9 2,3 4,4 7,4l92 0 0 45 -98 0c-8,0 -13,0 -17,-1 -3,-1 -7,-2 -10,-4 -8,-4 -13,-10 -17,-16 -3,-6 -5,-15 -5,-25z"/>
     <path class="fil4" d="M4411 3765l-45 0 0 -136c0,-2 0,-4 0,-8 2,-11 7,-20 13,-26 7,-5 17,-8 29,-8l62 0c13,0 22,3 29,8 7,6 11,15 13,26 0,3 0,6 0,8l0 136 -44 0 0 -121c0,-1 -1,-2 -1,-2 0,-4 -1,-6 -4,-8 -2,-1 -5,-2 -10,-2l-28 0c-4,0 -8,1 -10,2 -2,2 -4,4 -4,8l0 123z"/>
     <path class="fil4" d="M4593 3686l47 79 52 0 -55 -92 50 -86 -52 0 -41 71c-2,3 -4,7 -4,10 0,9 1,15 3,18zm-5 -166l-45 0 0 245 45 0 0 -245z"/>
     <path class="fil4" d="M4756 3664l57 -21 0 -2c-1,-3 -4,-6 -9,-7 0,0 -1,0 -2,0l-31 0c-1,0 -3,0 -5,1 -4,1 -7,3 -9,6 0,1 -1,3 -1,4l0 19zm-45 55l0 -91c0,-3 1,-6 1,-9 3,-11 8,-19 15,-24 7,-6 16,-8 28,-8l61 0c2,0 4,0 8,0 10,2 18,6 24,11 5,6 9,14 10,24 0,2 0,4 0,8l0 35 -101 39 0 3c0,4 1,7 2,9 2,3 4,4 7,4l92 0 0 45 -99 0c-7,0 -12,0 -16,-1 -3,-1 -7,-2 -10,-4 -8,-4 -14,-10 -17,-16 -3,-6 -5,-15 -5,-25z"/>
     <polygon class="fil4" points="4887,3765 4932,3765 4932,3520 4887,3520 "/>
     <polygon class="fil4" points="5007,3765 4962,3765 4962,3520 5007,3520 5007,3587 5037,3587 5037,3632 5007,3632 "/>
    </g>
    <g>
     <polygon class="fil4" points="3600,2949 3549,2949 3549,2711 3600,2711 3600,2804 3671,2804 3671,2711 3722,2711 3722,2949 3671,2949 3671,2855 3600,2855 "/>
     <path class="fil4" d="M3798 2848l56 -21 0 -1c0,-4 -3,-6 -8,-7 -1,0 -1,0 -2,0l-32 0c-1,0 -2,0 -5,0 -4,2 -7,4 -8,6 -1,2 -1,3 -1,5l0 18zm-45 55l0 -90c0,-3 0,-6 1,-9 3,-11 7,-20 14,-25 7,-5 17,-8 29,-8l61 0c1,0 4,0 8,1 10,1 18,5 24,11 5,5 8,13 10,24 0,1 0,4 0,7l0 36 -101 38 0 4c0,3 0,6 2,9 2,2 4,3 6,3l93 0 0 45 -99 0c-7,0 -12,0 -16,-1 -4,0 -7,-2 -10,-4 -8,-4 -14,-9 -17,-16 -3,-6 -5,-14 -5,-25z"/>
     <polygon class="fil4" points="3928,2949 3973,2949 3973,2704 3928,2704 "/>
     <polygon class="fil4" points="4049,2949 4004,2949 4004,2704 4049,2704 4049,2771 4079,2771 4079,2816 4049,2816 "/>
     <path class="fil4" d="M4235 2848l57 -21 0 -1c-1,-4 -4,-6 -9,-7 0,0 -1,0 -2,0l-31 0c-1,0 -3,0 -5,0 -4,2 -7,4 -9,6 0,2 -1,3 -1,5l0 18zm-45 55l0 -90c0,-3 1,-6 1,-9 3,-11 8,-20 15,-25 7,-5 16,-8 28,-8l61 0c2,0 4,0 8,1 10,1 18,5 24,11 5,5 9,13 10,24 0,1 0,4 0,7l0 36 -101 38 0 4c0,3 1,6 2,9 2,2 4,3 7,3l92 0 0 45 -98 0c-8,0 -13,0 -17,-1 -3,0 -7,-2 -10,-4 -8,-4 -13,-9 -17,-16 -3,-6 -5,-14 -5,-25z"/>
     <path class="fil4" d="M4411 2949l-45 0 0 -135c0,-2 0,-5 0,-8 2,-12 7,-21 13,-26 7,-6 17,-9 29,-9l62 0c13,0 22,3 29,9 7,5 11,14 13,25 0,4 0,7 0,9l0 135 -44 0 0 -120c0,-1 -1,-2 -1,-3 0,-3 -1,-6 -4,-7 -2,-2 -5,-3 -10,-3l-28 0c-4,0 -8,1 -10,3 -2,1 -4,4 -4,7l0 123z"/>
     <path class="fil4" d="M4593 2870l47 79 52 0 -55 -92 50 -86 -52 0 -41 71c-2,4 -4,7 -4,11 0,8 1,14 3,17zm-5 -166l-45 0 0 245 45 0 0 -245z"/>
     <path class="fil4" d="M4756 2848l57 -21 0 -1c-1,-4 -4,-6 -9,-7 0,0 -1,0 -2,0l-31 0c-1,0 -3,0 -5,0 -4,2 -7,4 -9,6 0,2 -1,3 -1,5l0 18zm-45 55l0 -90c0,-3 1,-6 1,-9 3,-11 8,-20 15,-25 7,-5 16,-8 28,-8l61 0c2,0 4,0 8,1 10,1 18,5 24,11 5,5 9,13 10,24 0,1 0,4 0,7l0 36 -101 38 0 4c0,3 1,6 2,9 2,2 4,3 7,3l92 0 0 45 -99 0c-7,0 -12,0 -16,-1 -3,0 -7,-2 -10,-4 -8,-4 -14,-9 -17,-16 -3,-6 -5,-14 -5,-25z"/>
     <polygon class="fil4" points="4887,2949 4932,2949 4932,2704 4887,2704 "/>
     <polygon class="fil4" points="5007,2949 4962,2949 4962,2704 5007,2704 5007,2771 5037,2771 5037,2816 5007,2816 "/>
    </g>
    <g>
     <polygon class="fil4" points="3600,2134 3549,2134 3549,1896 3600,1896 3600,1989 3671,1989 3671,1896 3722,1896 3722,2134 3671,2134 3671,2040 3600,2040 "/>
     <path class="fil4" d="M3798 2033l56 -21 0 -2c0,-4 -3,-6 -8,-7 -1,0 -1,0 -2,0l-32 0c-1,0 -2,0 -5,1 -4,1 -7,3 -8,6 -1,1 -1,2 -1,4l0 19zm-45 55l0 -91c0,-3 0,-6 1,-9 3,-11 7,-19 14,-25 7,-5 17,-8 29,-8l61 0c1,0 4,1 8,1 10,2 18,5 24,11 5,6 8,14 10,24 0,2 0,4 0,8l0 35 -101 39 0 3c0,3 0,7 2,9 2,2 4,3 6,3l93 0 0 46 -99 0c-7,0 -12,-1 -16,-1 -4,-1 -7,-2 -10,-4 -8,-5 -14,-10 -17,-16 -3,-7 -5,-15 -5,-25z"/>
     <polygon class="fil4" points="3928,2134 3973,2134 3973,1889 3928,1889 "/>
     <polygon class="fil4" points="4049,2134 4004,2134 4004,1889 4049,1889 4049,1955 4079,1955 4079,2001 4049,2001 "/>
     <path class="fil4" d="M4235 2033l57 -21 0 -2c-1,-4 -4,-6 -9,-7 0,0 -1,0 -2,0l-31 0c-1,0 -3,0 -5,1 -4,1 -7,3 -9,6 0,1 -1,2 -1,4l0 19zm-45 55l0 -91c0,-3 1,-6 1,-9 3,-11 8,-19 15,-25 7,-5 16,-8 28,-8l61 0c2,0 4,1 8,1 10,2 18,5 24,11 5,6 9,14 10,24 0,2 0,4 0,8l0 35 -101 39 0 3c0,3 1,7 2,9 2,2 4,3 7,3l92 0 0 46 -98 0c-8,0 -13,-1 -17,-1 -3,-1 -7,-2 -10,-4 -8,-5 -13,-10 -17,-16 -3,-7 -5,-15 -5,-25z"/>
     <path class="fil4" d="M4411 2134l-45 0 0 -136c0,-2 0,-5 0,-8 2,-12 7,-20 13,-26 7,-6 17,-9 29,-9l62 0c13,0 22,3 29,9 7,6 11,14 13,26 0,3 0,6 0,8l0 136 -44 0 0 -121c0,-1 -1,-2 -1,-2 0,-4 -1,-6 -4,-8 -2,-2 -5,-2 -10,-2l-28 0c-4,0 -8,0 -10,2 -2,2 -4,4 -4,8l0 123z"/>
     <path class="fil4" d="M4593 2055l47 79 52 0 -55 -93 50 -86 -52 0 -41 71c-2,4 -4,8 -4,11 0,9 1,14 3,18zm-5 -166l-45 0 0 245 45 0 0 -245z"/>
     <path class="fil4" d="M4756 2033l57 -21 0 -2c-1,-4 -4,-6 -9,-7 0,0 -1,0 -2,0l-31 0c-1,0 -3,0 -5,1 -4,1 -7,3 -9,6 0,1 -1,2 -1,4l0 19zm-45 55l0 -91c0,-3 1,-6 1,-9 3,-11 8,-19 15,-25 7,-5 16,-8 28,-8l61 0c2,0 4,1 8,1 10,2 18,5 24,11 5,6 9,14 10,24 0,2 0,4 0,8l0 35 -101 39 0 3c0,3 1,7 2,9 2,2 4,3 7,3l92 0 0 46 -99 0c-7,0 -12,-1 -16,-1 -3,-1 -7,-2 -10,-4 -8,-5 -14,-10 -17,-16 -3,-7 -5,-15 -5,-25z"/>
     <polygon class="fil4" points="4887,2134 4932,2134 4932,1889 4887,1889 "/>
     <polygon class="fil4" points="5007,2134 4962,2134 4962,1889 5007,1889 5007,1955 5037,1955 5037,2001 5007,2001 "/>
    </g>
    <g>
     <polygon class="fil4" points="3600,1318 3549,1318 3549,1080 3600,1080 3600,1173 3671,1173 3671,1080 3722,1080 3722,1318 3671,1318 3671,1224 3600,1224 "/>
     <path class="fil4" d="M3798 1217l56 -21 0 -2c0,-3 -3,-6 -8,-6 -1,-1 -1,-1 -2,-1l-32 0c-1,0 -2,1 -5,1 -4,1 -7,3 -8,6 -1,1 -1,3 -1,5l0 18zm-45 55l0 -91c0,-3 0,-6 1,-8 3,-12 7,-20 14,-25 7,-6 17,-8 29,-8l61 0c1,0 4,0 8,0 10,2 18,6 24,11 5,6 8,14 10,24 0,2 0,4 0,8l0 36 -101 38 0 3c0,4 0,7 2,9 2,3 4,4 6,4l93 0 0 45 -99 0c-7,0 -12,0 -16,-1 -4,-1 -7,-2 -10,-4 -8,-4 -14,-10 -17,-16 -3,-6 -5,-15 -5,-25z"/>
     <polygon class="fil4" points="3928,1318 3973,1318 3973,1073 3928,1073 "/>
     <polygon class="fil4" points="4049,1318 4004,1318 4004,1073 4049,1073 4049,1140 4079,1140 4079,1185 4049,1185 "/>
     <path class="fil4" d="M4235 1217l57 -21 0 -2c-1,-3 -4,-6 -9,-6 0,-1 -1,-1 -2,-1l-31 0c-1,0 -3,1 -5,1 -4,1 -7,3 -9,6 0,1 -1,3 -1,5l0 18zm-45 55l0 -91c0,-3 1,-6 1,-8 3,-12 8,-20 15,-25 7,-6 16,-8 28,-8l61 0c2,0 4,0 8,0 10,2 18,6 24,11 5,6 9,14 10,24 0,2 0,4 0,8l0 36 -101 38 0 3c0,4 1,7 2,9 2,3 4,4 7,4l92 0 0 45 -98 0c-8,0 -13,0 -17,-1 -3,-1 -7,-2 -10,-4 -8,-4 -13,-10 -17,-16 -3,-6 -5,-15 -5,-25z"/>
     <path class="fil4" d="M4411 1318l-45 0 0 -136c0,-2 0,-4 0,-8 2,-11 7,-20 13,-26 7,-5 17,-8 29,-8l62 0c13,0 22,3 29,8 7,6 11,15 13,26 0,4 0,6 0,8l0 136 -44 0 0 -121c0,-1 -1,-1 -1,-2 0,-4 -1,-6 -4,-8 -2,-1 -5,-2 -10,-2l-28 0c-4,0 -8,1 -10,2 -2,2 -4,4 -4,8l0 123z"/>
     <path class="fil4" d="M4593 1239l47 79 52 0 -55 -92 50 -86 -52 0 -41 71c-2,3 -4,7 -4,11 0,8 1,14 3,17zm-5 -166l-45 0 0 245 45 0 0 -245z"/>
     <path class="fil4" d="M4756 1217l57 -21 0 -2c-1,-3 -4,-6 -9,-6 0,-1 -1,-1 -2,-1l-31 0c-1,0 -3,1 -5,1 -4,1 -7,3 -9,6 0,1 -1,3 -1,5l0 18zm-45 55l0 -91c0,-3 1,-6 1,-8 3,-12 8,-20 15,-25 7,-6 16,-8 28,-8l61 0c2,0 4,0 8,0 10,2 18,6 24,11 5,6 9,14 10,24 0,2 0,4 0,8l0 36 -101 38 0 3c0,4 1,7 2,9 2,3 4,4 7,4l92 0 0 45 -99 0c-7,0 -12,0 -16,-1 -3,-1 -7,-2 -10,-4 -8,-4 -14,-10 -17,-16 -3,-6 -5,-15 -5,-25z"/>
     <polygon class="fil4" points="4887,1318 4932,1318 4932,1073 4887,1073 "/>
     <polygon class="fil4" points="5007,1318 4962,1318 4962,1073 5007,1073 5007,1140 5037,1140 5037,1185 5007,1185 "/>
    </g>
    <g>
     <polygon class="fil4" points="3600,502 3549,502 3549,265 3600,265 3600,358 3671,358 3671,265 3722,265 3722,502 3671,502 3671,409 3600,409 "/>
     <path class="fil4" d="M3798 401l56 -21 0 -1c0,-4 -3,-6 -8,-7 -1,0 -1,0 -2,0l-32 0c-1,0 -2,0 -5,1 -4,1 -7,3 -8,5 -1,2 -1,3 -1,5l0 18zm-45 55l0 -90c0,-3 0,-6 1,-9 3,-11 7,-20 14,-25 7,-5 17,-8 29,-8l61 0c1,0 4,0 8,1 10,1 18,5 24,11 5,6 8,14 10,24 0,1 0,4 0,7l0 36 -101 39 0 3c0,3 0,6 2,9 2,2 4,3 6,3l93 0 0 45 -99 0c-7,0 -12,0 -16,-1 -4,0 -7,-2 -10,-4 -8,-4 -14,-9 -17,-15 -3,-7 -5,-15 -5,-26z"/>
     <polygon class="fil4" points="3928,502 3973,502 3973,257 3928,257 "/>
     <polygon class="fil4" points="4049,502 4004,502 4004,257 4049,257 4049,324 4079,324 4079,369 4049,369 "/>
     <path class="fil4" d="M4235 401l57 -21 0 -1c-1,-4 -4,-6 -9,-7 0,0 -1,0 -2,0l-31 0c-1,0 -3,0 -5,1 -4,1 -7,3 -9,5 0,2 -1,3 -1,5l0 18zm-45 55l0 -90c0,-3 1,-6 1,-9 3,-11 8,-20 15,-25 7,-5 16,-8 28,-8l61 0c2,0 4,0 8,1 10,1 18,5 24,11 5,6 9,14 10,24 0,1 0,4 0,7l0 36 -101 39 0 3c0,3 1,6 2,9 2,2 4,3 7,3l92 0 0 45 -98 0c-8,0 -13,0 -17,-1 -3,0 -7,-2 -10,-4 -8,-4 -13,-9 -17,-15 -3,-7 -5,-15 -5,-26z"/>
     <path class="fil4" d="M4411 502l-45 0 0 -135c0,-2 0,-5 0,-8 2,-12 7,-21 13,-26 7,-6 17,-9 29,-9l62 0c13,0 22,3 29,9 7,6 11,14 13,25 0,4 0,7 0,9l0 135 -44 0 0 -120c0,-1 -1,-2 -1,-3 0,-3 -1,-6 -4,-7 -2,-2 -5,-3 -10,-3l-28 0c-4,0 -8,1 -10,3 -2,1 -4,4 -4,7l0 123z"/>
     <path class="fil4" d="M4593 424l47 78 52 0 -55 -92 50 -86 -52 0 -41 71c-2,4 -4,7 -4,11 0,8 1,14 3,18zm-5 -167l-45 0 0 245 45 0 0 -245z"/>
     <path class="fil4" d="M4756 401l57 -21 0 -1c-1,-4 -4,-6 -9,-7 0,0 -1,0 -2,0l-31 0c-1,0 -3,0 -5,1 -4,1 -7,3 -9,5 0,2 -1,3 -1,5l0 18zm-45 55l0 -90c0,-3 1,-6 1,-9 3,-11 8,-20 15,-25 7,-5 16,-8 28,-8l61 0c2,0 4,0 8,1 10,1 18,5 24,11 5,6 9,14 10,24 0,1 0,4 0,7l0 36 -101 39 0 3c0,3 1,6 2,9 2,2 4,3 7,3l92 0 0 45 -99 0c-7,0 -12,0 -16,-1 -3,0 -7,-2 -10,-4 -8,-4 -14,-9 -17,-15 -3,-7 -5,-15 -5,-26z"/>
     <polygon class="fil4" points="4887,502 4932,502 4932,257 4887,257 "/>
     <polygon class="fil4" points="5007,502 4962,502 4962,257 5007,257 5007,324 5037,324 5037,369 5007,369 "/>
    </g>
   </g>
   <g>
    <g>
     <polygon class="fil4" points="5257,4173 5206,4173 5206,3935 5257,3935 5257,4028 5328,4028 5328,3935 5379,3935 5379,4173 5328,4173 5328,4079 5257,4079 "/>
     <path class="fil4" d="M5454 4072l57 -21 0 -2c-1,-4 -4,-6 -9,-7 0,0 -1,0 -2,0l-31 0c-1,0 -3,0 -5,1 -5,1 -7,3 -9,6 -1,1 -1,3 -1,4l0 19zm-45 55l0 -91c0,-3 1,-6 1,-9 3,-11 8,-19 15,-25 6,-5 16,-7 28,-7l61 0c2,0 4,0 8,0 10,2 18,5 24,11 5,6 9,14 10,24 0,2 0,4 0,8l0 35 -101 39 0 3c0,4 1,7 2,9 2,2 4,4 7,4l92 0 0 45 -99 0c-7,0 -12,-1 -16,-1 -3,-1 -7,-2 -10,-4 -8,-5 -14,-10 -17,-16 -3,-6 -5,-15 -5,-25z"/>
     <polygon class="fil4" points="5585,4173 5630,4173 5630,3928 5585,3928 "/>
     <polygon class="fil4" points="5705,4173 5660,4173 5660,3928 5705,3928 5705,3995 5735,3995 5735,4040 5705,4040 "/>
     <path class="fil4" d="M5892 4072l56 -21 0 -2c-1,-4 -3,-6 -8,-7 -1,0 -2,0 -3,0l-31 0c-1,0 -3,0 -5,1 -4,1 -7,3 -8,6 -1,1 -1,3 -1,4l0 19zm-45 55l0 -91c0,-3 0,-6 1,-9 2,-11 7,-19 14,-25 7,-5 16,-7 29,-7l60 0c2,0 5,0 8,0 11,2 19,5 24,11 6,6 9,14 10,24 1,2 1,4 1,8l0 35 -102 39 0 3c0,4 1,7 3,9 1,2 3,4 6,4l92 0 0 45 -98 0c-7,0 -13,-1 -16,-1 -4,-1 -7,-2 -11,-4 -8,-5 -13,-10 -16,-16 -4,-6 -5,-15 -5,-25z"/>
     <path class="fil4" d="M6067 4173l-45 0 0 -136c0,-2 0,-5 1,-8 2,-12 6,-20 13,-26 6,-6 16,-8 28,-8l63 0c12,0 21,2 28,8 7,6 11,14 13,26 1,3 1,6 1,8l0 136 -45 0 0 -121c0,-1 0,-2 0,-2 -1,-4 -2,-6 -4,-8 -3,-1 -6,-2 -11,-2l-28 0c-4,0 -8,1 -10,2 -2,2 -4,4 -4,8l0 123z"/>
     <path class="fil4" d="M6249 4094l47 79 53 0 -56 -93 51 -85 -52 0 -42 70c-2,4 -3,8 -4,11 0,9 1,14 3,18zm-5 -166l-45 0 0 245 45 0 0 -245z"/>
     <path class="fil4" d="M6413 4072l56 -21 0 -2c-1,-4 -3,-6 -8,-7 -1,0 -2,0 -3,0l-31 0c-1,0 -3,0 -5,1 -4,1 -7,3 -9,6 0,1 0,3 0,4l0 19zm-45 55l0 -91c0,-3 0,-6 1,-9 2,-11 7,-19 14,-25 7,-5 16,-7 29,-7l60 0c2,0 5,0 8,0 11,2 19,5 24,11 6,6 9,14 10,24 0,2 1,4 1,8l0 35 -102 39 0 3c0,4 1,7 3,9 1,2 3,4 6,4l92 0 0 45 -98 0c-7,0 -13,-1 -16,-1 -4,-1 -7,-2 -11,-4 -8,-5 -13,-10 -17,-16 -3,-6 -4,-15 -4,-25z"/>
     <polygon class="fil4" points="6543,4173 6588,4173 6588,3928 6543,3928 "/>
     <polygon class="fil4" points="6663,4173 6619,4173 6619,3928 6663,3928 6663,3995 6693,3995 6693,4040 6663,4040 "/>
    </g>
    <g>
     <polygon class="fil4" points="5257,3357 5206,3357 5206,3119 5257,3119 5257,3212 5328,3212 5328,3119 5379,3119 5379,3357 5328,3357 5328,3263 5257,3263 "/>
     <path class="fil4" d="M5454 3256l57 -21 0 -1c-1,-4 -4,-7 -9,-7 0,-1 -1,-1 -2,-1l-31 0c-1,0 -3,1 -5,1 -5,1 -7,3 -9,6 -1,1 -1,3 -1,5l0 18zm-45 55l0 -91c0,-3 1,-6 1,-8 3,-12 8,-20 15,-25 6,-5 16,-8 28,-8l61 0c2,0 4,0 8,1 10,1 18,5 24,11 5,5 9,13 10,23 0,2 0,4 0,8l0 36 -101 38 0 3c0,4 1,7 2,9 2,3 4,4 7,4l92 0 0 45 -99 0c-7,0 -12,0 -16,-1 -3,-1 -7,-2 -10,-4 -8,-4 -14,-9 -17,-16 -3,-6 -5,-14 -5,-25z"/>
     <polygon class="fil4" points="5585,3357 5630,3357 5630,3112 5585,3112 "/>
     <polygon class="fil4" points="5705,3357 5660,3357 5660,3112 5705,3112 5705,3179 5735,3179 5735,3224 5705,3224 "/>
     <path class="fil4" d="M5892 3256l56 -21 0 -1c-1,-4 -3,-7 -8,-7 -1,-1 -2,-1 -3,-1l-31 0c-1,0 -3,1 -5,1 -4,1 -7,3 -8,6 -1,1 -1,3 -1,5l0 18zm-45 55l0 -91c0,-3 0,-6 1,-8 2,-12 7,-20 14,-25 7,-5 16,-8 29,-8l60 0c2,0 5,0 8,1 11,1 19,5 24,11 6,5 9,13 10,23 1,2 1,4 1,8l0 36 -102 38 0 3c0,4 1,7 3,9 1,3 3,4 6,4l92 0 0 45 -98 0c-7,0 -13,0 -16,-1 -4,-1 -7,-2 -11,-4 -8,-4 -13,-9 -16,-16 -4,-6 -5,-14 -5,-25z"/>
     <path class="fil4" d="M6067 3357l-45 0 0 -136c0,-2 0,-4 1,-8 2,-11 6,-20 13,-26 6,-5 16,-8 28,-8l63 0c12,0 21,3 28,8 7,6 11,15 13,26 1,4 1,6 1,8l0 136 -45 0 0 -120c0,-2 0,-2 0,-3 -1,-3 -2,-6 -4,-8 -3,-1 -6,-2 -11,-2l-28 0c-4,0 -8,1 -10,2 -2,2 -4,5 -4,8l0 123z"/>
     <path class="fil4" d="M6249 3278l47 79 53 0 -56 -92 51 -86 -52 0 -42 71c-2,3 -3,7 -4,11 0,8 1,14 3,17zm-5 -166l-45 0 0 245 45 0 0 -245z"/>
     <path class="fil4" d="M6413 3256l56 -21 0 -1c-1,-4 -3,-7 -8,-7 -1,-1 -2,-1 -3,-1l-31 0c-1,0 -3,1 -5,1 -4,1 -7,3 -9,6 0,1 0,3 0,5l0 18zm-45 55l0 -91c0,-3 0,-6 1,-8 2,-12 7,-20 14,-25 7,-5 16,-8 29,-8l60 0c2,0 5,0 8,1 11,1 19,5 24,11 6,5 9,13 10,23 0,2 1,4 1,8l0 36 -102 38 0 3c0,4 1,7 3,9 1,3 3,4 6,4l92 0 0 45 -98 0c-7,0 -13,0 -16,-1 -4,-1 -7,-2 -11,-4 -8,-4 -13,-9 -17,-16 -3,-6 -4,-14 -4,-25z"/>
     <polygon class="fil4" points="6543,3357 6588,3357 6588,3112 6543,3112 "/>
     <polygon class="fil4" points="6663,3357 6619,3357 6619,3112 6663,3112 6663,3179 6693,3179 6693,3224 6663,3224 "/>
    </g>
    <g>
     <polygon class="fil4" points="5257,2542 5206,2542 5206,2304 5257,2304 5257,2397 5328,2397 5328,2304 5379,2304 5379,2542 5328,2542 5328,2448 5257,2448 "/>
     <path class="fil4" d="M5454 2440l57 -21 0 -1c-1,-4 -4,-6 -9,-7 0,0 -1,0 -2,0l-31 0c-1,0 -3,0 -5,1 -5,1 -7,3 -9,6 -1,1 -1,2 -1,4l0 18zm-45 55l0 -90c0,-3 1,-6 1,-9 3,-11 8,-19 15,-25 6,-5 16,-8 28,-8l61 0c2,0 4,0 8,1 10,1 18,5 24,11 5,6 9,14 10,24 0,1 0,4 0,7l0 36 -101 39 0 3c0,3 1,6 2,9 2,2 4,3 7,3l92 0 0 46 -99 0c-7,0 -12,-1 -16,-2 -3,0 -7,-2 -10,-3 -8,-5 -14,-10 -17,-16 -3,-7 -5,-15 -5,-26z"/>
     <polygon class="fil4" points="5585,2542 5630,2542 5630,2296 5585,2296 "/>
     <polygon class="fil4" points="5705,2542 5660,2542 5660,2296 5705,2296 5705,2363 5735,2363 5735,2408 5705,2408 "/>
     <path class="fil4" d="M5892 2440l56 -21 0 -1c-1,-4 -3,-6 -8,-7 -1,0 -2,0 -3,0l-31 0c-1,0 -3,0 -5,1 -4,1 -7,3 -8,6 -1,1 -1,2 -1,4l0 18zm-45 55l0 -90c0,-3 0,-6 1,-9 2,-11 7,-19 14,-25 7,-5 16,-8 29,-8l60 0c2,0 5,0 8,1 11,1 19,5 24,11 6,6 9,14 10,24 1,1 1,4 1,7l0 36 -102 39 0 3c0,3 1,6 3,9 1,2 3,3 6,3l92 0 0 46 -98 0c-7,0 -13,-1 -16,-2 -4,0 -7,-2 -11,-3 -8,-5 -13,-10 -16,-16 -4,-7 -5,-15 -5,-26z"/>
     <path class="fil4" d="M6067 2542l-45 0 0 -136c0,-2 0,-5 1,-8 2,-12 6,-20 13,-26 6,-6 16,-9 28,-9l63 0c12,0 21,3 28,9 7,6 11,14 13,26 1,3 1,6 1,8l0 136 -45 0 0 -121c0,-1 0,-2 0,-3 -1,-3 -2,-6 -4,-7 -3,-2 -6,-3 -11,-3l-28 0c-4,0 -8,1 -10,3 -2,1 -4,4 -4,7l0 124z"/>
     <path class="fil4" d="M6249 2463l47 79 53 0 -56 -93 51 -86 -52 0 -42 71c-2,4 -3,7 -4,11 0,8 1,14 3,18zm-5 -167l-45 0 0 246 45 0 0 -246z"/>
     <path class="fil4" d="M6413 2440l56 -21 0 -1c-1,-4 -3,-6 -8,-7 -1,0 -2,0 -3,0l-31 0c-1,0 -3,0 -5,1 -4,1 -7,3 -9,6 0,1 0,2 0,4l0 18zm-45 55l0 -90c0,-3 0,-6 1,-9 2,-11 7,-19 14,-25 7,-5 16,-8 29,-8l60 0c2,0 5,0 8,1 11,1 19,5 24,11 6,6 9,14 10,24 0,1 1,4 1,7l0 36 -102 39 0 3c0,3 1,6 3,9 1,2 3,3 6,3l92 0 0 46 -98 0c-7,0 -13,-1 -16,-2 -4,0 -7,-2 -11,-3 -8,-5 -13,-10 -17,-16 -3,-7 -4,-15 -4,-26z"/>
     <polygon class="fil4" points="6543,2542 6588,2542 6588,2296 6543,2296 "/>
     <polygon class="fil4" points="6663,2542 6619,2542 6619,2296 6663,2296 6663,2363 6693,2363 6693,2408 6663,2408 "/>
    </g>
    <g>
     <polygon class="fil4" points="5257,1726 5206,1726 5206,1488 5257,1488 5257,1581 5328,1581 5328,1488 5379,1488 5379,1726 5328,1726 5328,1632 5257,1632 "/>
     <path class="fil4" d="M5454 1625l57 -21 0 -2c-1,-3 -4,-6 -9,-7 0,0 -1,0 -2,0l-31 0c-1,0 -3,0 -5,1 -5,1 -7,3 -9,6 -1,1 -1,3 -1,4l0 19zm-45 55l0 -91c0,-3 1,-6 1,-9 3,-11 8,-19 15,-24 6,-6 16,-8 28,-8l61 0c2,0 4,0 8,0 10,2 18,6 24,11 5,6 9,14 10,24 0,2 0,4 0,8l0 35 -101 39 0 3c0,4 1,7 2,9 2,2 4,4 7,4l92 0 0 45 -99 0c-7,0 -12,0 -16,-1 -3,-1 -7,-2 -10,-4 -8,-4 -14,-10 -17,-16 -3,-6 -5,-15 -5,-25z"/>
     <polygon class="fil4" points="5585,1726 5630,1726 5630,1481 5585,1481 "/>
     <polygon class="fil4" points="5705,1726 5660,1726 5660,1481 5705,1481 5705,1548 5735,1548 5735,1593 5705,1593 "/>
     <path class="fil4" d="M5892 1625l56 -21 0 -2c-1,-3 -3,-6 -8,-7 -1,0 -2,0 -3,0l-31 0c-1,0 -3,0 -5,1 -4,1 -7,3 -8,6 -1,1 -1,3 -1,4l0 19zm-45 55l0 -91c0,-3 0,-6 1,-9 2,-11 7,-19 14,-24 7,-6 16,-8 29,-8l60 0c2,0 5,0 8,0 11,2 19,6 24,11 6,6 9,14 10,24 1,2 1,4 1,8l0 35 -102 39 0 3c0,4 1,7 3,9 1,2 3,4 6,4l92 0 0 45 -98 0c-7,0 -13,0 -16,-1 -4,-1 -7,-2 -11,-4 -8,-4 -13,-10 -16,-16 -4,-6 -5,-15 -5,-25z"/>
     <path class="fil4" d="M6067 1726l-45 0 0 -136c0,-2 0,-5 1,-8 2,-11 6,-20 13,-26 6,-6 16,-8 28,-8l63 0c12,0 21,2 28,8 7,6 11,15 13,26 1,3 1,6 1,8l0 136 -45 0 0 -121c0,-1 0,-2 0,-2 -1,-4 -2,-6 -4,-8 -3,-1 -6,-2 -11,-2l-28 0c-4,0 -8,1 -10,2 -2,2 -4,4 -4,8l0 123z"/>
     <path class="fil4" d="M6249 1647l47 79 53 0 -56 -92 51 -86 -52 0 -42 71c-2,3 -3,7 -4,10 0,9 1,15 3,18zm-5 -166l-45 0 0 245 45 0 0 -245z"/>
     <path class="fil4" d="M6413 1625l56 -21 0 -2c-1,-3 -3,-6 -8,-7 -1,0 -2,0 -3,0l-31 0c-1,0 -3,0 -5,1 -4,1 -7,3 -9,6 0,1 0,3 0,4l0 19zm-45 55l0 -91c0,-3 0,-6 1,-9 2,-11 7,-19 14,-24 7,-6 16,-8 29,-8l60 0c2,0 5,0 8,0 11,2 19,6 24,11 6,6 9,14 10,24 0,2 1,4 1,8l0 35 -102 39 0 3c0,4 1,7 3,9 1,2 3,4 6,4l92 0 0 45 -98 0c-7,0 -13,0 -16,-1 -4,-1 -7,-2 -11,-4 -8,-4 -13,-10 -17,-16 -3,-6 -4,-15 -4,-25z"/>
     <polygon class="fil4" points="6543,1726 6588,1726 6588,1481 6543,1481 "/>
     <polygon class="fil4" points="6663,1726 6619,1726 6619,1481 6663,1481 6663,1548 6693,1548 6693,1593 6663,1593 "/>
    </g>
    <g>
     <polygon class="fil4" points="5257,910 5206,910 5206,672 5257,672 5257,765 5328,765 5328,672 5379,672 5379,910 5328,910 5328,816 5257,816 "/>
     <path class="fil4" d="M5454 809l57 -21 0 -1c-1,-4 -4,-6 -9,-7 0,0 -1,-1 -2,-1l-31 0c-1,0 -3,1 -5,1 -5,2 -7,4 -9,6 -1,2 -1,3 -1,5l0 18zm-45 55l0 -91c0,-2 1,-5 1,-8 3,-11 8,-20 15,-25 6,-5 16,-8 28,-8l61 0c2,0 4,0 8,1 10,1 18,5 24,11 5,5 9,13 10,24 0,1 0,4 0,7l0 36 -101 38 0 3c0,4 1,7 2,9 2,3 4,4 7,4l92 0 0 45 -99 0c-7,0 -12,0 -16,-1 -3,0 -7,-2 -10,-4 -8,-4 -14,-9 -17,-16 -3,-6 -5,-14 -5,-25z"/>
     <polygon class="fil4" points="5585,910 5630,910 5630,665 5585,665 "/>
     <polygon class="fil4" points="5705,910 5660,910 5660,665 5705,665 5705,732 5735,732 5735,777 5705,777 "/>
     <path class="fil4" d="M5892 809l56 -21 0 -1c-1,-4 -3,-6 -8,-7 -1,0 -2,-1 -3,-1l-31 0c-1,0 -3,1 -5,1 -4,2 -7,4 -8,6 -1,2 -1,3 -1,5l0 18zm-45 55l0 -91c0,-2 0,-5 1,-8 2,-11 7,-20 14,-25 7,-5 16,-8 29,-8l60 0c2,0 5,0 8,1 11,1 19,5 24,11 6,5 9,13 10,24 1,1 1,4 1,7l0 36 -102 38 0 3c0,4 1,7 3,9 1,3 3,4 6,4l92 0 0 45 -98 0c-7,0 -13,0 -16,-1 -4,0 -7,-2 -11,-4 -8,-4 -13,-9 -16,-16 -4,-6 -5,-14 -5,-25z"/>
     <path class="fil4" d="M6067 910l-45 0 0 -135c0,-2 0,-5 1,-9 2,-11 6,-20 13,-25 6,-6 16,-9 28,-9l63 0c12,0 21,3 28,9 7,5 11,14 13,25 1,4 1,6 1,8l0 136 -45 0 0 -120c0,-1 0,-2 0,-3 -1,-3 -2,-6 -4,-7 -3,-2 -6,-3 -11,-3l-28 0c-4,0 -8,1 -10,3 -2,1 -4,4 -4,7l0 123z"/>
     <path class="fil4" d="M6249 831l47 79 53 0 -56 -92 51 -86 -52 0 -42 71c-2,4 -3,7 -4,11 0,8 1,14 3,17zm-5 -166l-45 0 0 245 45 0 0 -245z"/>
     <path class="fil4" d="M6413 809l56 -21 0 -1c-1,-4 -3,-6 -8,-7 -1,0 -2,-1 -3,-1l-31 0c-1,0 -3,1 -5,1 -4,2 -7,4 -9,6 0,2 0,3 0,5l0 18zm-45 55l0 -91c0,-2 0,-5 1,-8 2,-11 7,-20 14,-25 7,-5 16,-8 29,-8l60 0c2,0 5,0 8,1 11,1 19,5 24,11 6,5 9,13 10,24 0,1 1,4 1,7l0 36 -102 38 0 3c0,4 1,7 3,9 1,3 3,4 6,4l92 0 0 45 -98 0c-7,0 -13,0 -16,-1 -4,0 -7,-2 -11,-4 -8,-4 -13,-9 -17,-16 -3,-6 -4,-14 -4,-25z"/>
     <polygon class="fil4" points="6543,910 6588,910 6588,665 6543,665 "/>
     <polygon class="fil4" points="6663,910 6619,910 6619,665 6663,665 6663,732 6693,732 6693,777 6663,777 "/>
    </g>
   </g>
   <g>
    <g>
     <polygon class="fil4" points="6913,4581 6862,4581 6862,4343 6913,4343 6913,4436 6984,4436 6984,4343 7035,4343 7035,4581 6984,4581 6984,4487 6913,4487 "/>
     <path class="fil4" d="M7110 4479l57 -20 0 -2c-1,-4 -4,-6 -9,-7 0,0 -1,0 -2,0l-31 0c-1,0 -3,0 -5,1 -4,1 -7,3 -9,6 0,1 -1,2 -1,4l0 18zm-44 55l0 -90c0,-3 0,-6 0,-9 3,-11 8,-19 15,-25 7,-5 16,-8 28,-8l61 0c2,0 5,1 8,1 11,2 19,5 24,11 6,6 9,14 10,24 0,1 0,4 0,7l0 36 -101 39 0 3c0,3 1,6 2,9 2,2 4,3 7,3l92 0 0 46 -98 0c-8,0 -13,-1 -16,-1 -4,-1 -8,-2 -11,-4 -8,-5 -13,-10 -17,-16 -3,-7 -4,-15 -4,-26z"/>
     <polygon class="fil4" points="7241,4581 7286,4581 7286,4336 7241,4336 "/>
     <polygon class="fil4" points="7361,4581 7316,4581 7316,4336 7361,4336 7361,4402 7391,4402 7391,4448 7361,4448 "/>
     <path class="fil4" d="M7548 4479l56 -20 0 -2c0,-4 -3,-6 -8,-7 -1,0 -1,0 -2,0l-32 0c-1,0 -2,0 -5,1 -4,1 -7,3 -8,6 -1,1 -1,2 -1,4l0 18zm-45 55l0 -90c0,-3 0,-6 1,-9 2,-11 7,-19 14,-25 7,-5 17,-8 29,-8l61 0c1,0 4,1 8,1 10,2 18,5 23,11 6,6 9,14 11,24 0,1 0,4 0,7l0 36 -102 39 0 3c0,3 1,6 3,9 1,2 4,3 6,3l93 0 0 46 -99 0c-7,0 -12,-1 -16,-1 -4,-1 -7,-2 -11,-4 -7,-5 -13,-10 -16,-16 -3,-7 -5,-15 -5,-26z"/>
     <path class="fil4" d="M7723 4581l-45 0 0 -136c0,-2 1,-5 1,-8 2,-12 6,-20 13,-26 7,-6 16,-9 29,-9l62 0c12,0 22,3 29,9 6,6 11,14 12,26 1,3 1,6 1,8l0 136 -45 0 0 -121c0,-1 0,-2 0,-3 -1,-3 -2,-5 -4,-7 -2,-2 -6,-2 -11,-2l-27 0c-5,0 -8,0 -11,2 -2,2 -3,4 -4,7l0 124z"/>
     <path class="fil4" d="M7905 4502l47 79 53 0 -55 -93 50 -86 -52 0 -42 71c-2,4 -3,7 -4,11 0,8 1,14 3,18zm-4 -166l-45 0 0 245 45 0 0 -245z"/>
     <path class="fil4" d="M8069 4479l56 -20 0 -2c0,-4 -3,-6 -8,-7 -1,0 -2,0 -2,0l-32 0c-1,0 -2,0 -5,1 -4,1 -7,3 -8,6 -1,1 -1,2 -1,4l0 18zm-45 55l0 -90c0,-3 0,-6 1,-9 2,-11 7,-19 14,-25 7,-5 17,-8 29,-8l61 0c1,0 4,1 8,1 10,2 18,5 23,11 6,6 9,14 11,24 0,1 0,4 0,7l0 36 -102 39 0 3c0,3 1,6 3,9 1,2 4,3 6,3l93 0 0 46 -99 0c-7,0 -13,-1 -16,-1 -4,-1 -7,-2 -11,-4 -7,-5 -13,-10 -16,-16 -3,-7 -5,-15 -5,-26z"/>
     <polygon class="fil4" points="8199,4581 8244,4581 8244,4336 8199,4336 "/>
     <polygon class="fil4" points="8320,4581 8275,4581 8275,4336 8320,4336 8320,4402 8350,4402 8350,4448 8320,4448 "/>
    </g>
    <g>
     <polygon class="fil4" points="6913,3765 6862,3765 6862,3527 6913,3527 6913,3620 6984,3620 6984,3527 7035,3527 7035,3765 6984,3765 6984,3671 6913,3671 "/>
     <path class="fil4" d="M7110 3664l57 -21 0 -2c-1,-3 -4,-6 -9,-7 0,0 -1,0 -2,0l-31 0c-1,0 -3,0 -5,1 -4,1 -7,3 -9,6 0,1 -1,3 -1,4l0 19zm-44 55l0 -91c0,-3 0,-6 0,-9 3,-11 8,-19 15,-24 7,-6 16,-8 28,-8l61 0c2,0 5,0 8,0 11,2 19,6 24,11 6,6 9,14 10,24 0,2 0,4 0,8l0 35 -101 39 0 3c0,4 1,7 2,9 2,3 4,4 7,4l92 0 0 45 -98 0c-8,0 -13,0 -16,-1 -4,-1 -8,-2 -11,-4 -8,-4 -13,-10 -17,-16 -3,-6 -4,-15 -4,-25z"/>
     <polygon class="fil4" points="7241,3765 7286,3765 7286,3520 7241,3520 "/>
     <polygon class="fil4" points="7361,3765 7316,3765 7316,3520 7361,3520 7361,3587 7391,3587 7391,3632 7361,3632 "/>
     <path class="fil4" d="M7548 3664l56 -21 0 -2c0,-3 -3,-6 -8,-7 -1,0 -1,0 -2,0l-32 0c-1,0 -2,0 -5,1 -4,1 -7,3 -8,6 -1,1 -1,3 -1,4l0 19zm-45 55l0 -91c0,-3 0,-6 1,-9 2,-11 7,-19 14,-24 7,-6 17,-8 29,-8l61 0c1,0 4,0 8,0 10,2 18,6 23,11 6,6 9,14 11,24 0,2 0,4 0,8l0 35 -102 39 0 3c0,4 1,7 3,9 1,3 4,4 6,4l93 0 0 45 -99 0c-7,0 -12,0 -16,-1 -4,-1 -7,-2 -11,-4 -7,-4 -13,-10 -16,-16 -3,-6 -5,-15 -5,-25z"/>
     <path class="fil4" d="M7723 3765l-45 0 0 -136c0,-2 1,-4 1,-8 2,-11 6,-20 13,-26 7,-5 16,-8 29,-8l62 0c12,0 22,3 29,8 6,6 11,15 12,26 1,3 1,6 1,8l0 136 -45 0 0 -121c0,-1 0,-2 0,-2 -1,-4 -2,-6 -4,-8 -2,-1 -6,-2 -11,-2l-27 0c-5,0 -8,1 -11,2 -2,2 -3,4 -4,8l0 123z"/>
     <path class="fil4" d="M7905 3686l47 79 53 0 -55 -92 50 -86 -52 0 -42 71c-2,3 -3,7 -4,10 0,9 1,15 3,18zm-4 -166l-45 0 0 245 45 0 0 -245z"/>
     <path class="fil4" d="M8069 3664l56 -21 0 -2c0,-3 -3,-6 -8,-7 -1,0 -2,0 -2,0l-32 0c-1,0 -2,0 -5,1 -4,1 -7,3 -8,6 -1,1 -1,3 -1,4l0 19zm-45 55l0 -91c0,-3 0,-6 1,-9 2,-11 7,-19 14,-24 7,-6 17,-8 29,-8l61 0c1,0 4,0 8,0 10,2 18,6 23,11 6,6 9,14 11,24 0,2 0,4 0,8l0 35 -102 39 0 3c0,4 1,7 3,9 1,3 4,4 6,4l93 0 0 45 -99 0c-7,0 -13,0 -16,-1 -4,-1 -7,-2 -11,-4 -7,-4 -13,-10 -16,-16 -3,-6 -5,-15 -5,-25z"/>
     <polygon class="fil4" points="8199,3765 8244,3765 8244,3520 8199,3520 "/>
     <polygon class="fil4" points="8320,3765 8275,3765 8275,3520 8320,3520 8320,3587 8350,3587 8350,3632 8320,3632 "/>
    </g>
    <g>
     <polygon class="fil4" points="6913,2949 6862,2949 6862,2711 6913,2711 6913,2804 6984,2804 6984,2711 7035,2711 7035,2949 6984,2949 6984,2855 6913,2855 "/>
     <path class="fil4" d="M7110 2848l57 -21 0 -1c-1,-4 -4,-6 -9,-7 0,0 -1,0 -2,0l-31 0c-1,0 -3,0 -5,0 -4,2 -7,4 -9,6 0,2 -1,3 -1,5l0 18zm-44 55l0 -90c0,-3 0,-6 0,-9 3,-11 8,-20 15,-25 7,-5 16,-8 28,-8l61 0c2,0 5,0 8,1 11,1 19,5 24,11 6,5 9,13 10,24 0,1 0,4 0,7l0 36 -101 38 0 4c0,3 1,6 2,9 2,2 4,3 7,3l92 0 0 45 -98 0c-8,0 -13,0 -16,-1 -4,0 -8,-2 -11,-4 -8,-4 -13,-9 -17,-16 -3,-6 -4,-14 -4,-25z"/>
     <polygon class="fil4" points="7241,2949 7286,2949 7286,2704 7241,2704 "/>
     <polygon class="fil4" points="7361,2949 7316,2949 7316,2704 7361,2704 7361,2771 7391,2771 7391,2816 7361,2816 "/>
     <path class="fil4" d="M7548 2848l56 -21 0 -1c0,-4 -3,-6 -8,-7 -1,0 -1,0 -2,0l-32 0c-1,0 -2,0 -5,0 -4,2 -7,4 -8,6 -1,2 -1,3 -1,5l0 18zm-45 55l0 -90c0,-3 0,-6 1,-9 2,-11 7,-20 14,-25 7,-5 17,-8 29,-8l61 0c1,0 4,0 8,1 10,1 18,5 23,11 6,5 9,13 11,24 0,1 0,4 0,7l0 36 -102 38 0 4c0,3 1,6 3,9 1,2 4,3 6,3l93 0 0 45 -99 0c-7,0 -12,0 -16,-1 -4,0 -7,-2 -11,-4 -7,-4 -13,-9 -16,-16 -3,-6 -5,-14 -5,-25z"/>
     <path class="fil4" d="M7723 2949l-45 0 0 -135c0,-2 1,-5 1,-8 2,-12 6,-21 13,-26 7,-6 16,-9 29,-9l62 0c12,0 22,3 29,9 6,5 11,14 12,25 1,4 1,7 1,9l0 135 -45 0 0 -120c0,-1 0,-2 0,-3 -1,-3 -2,-6 -4,-7 -2,-2 -6,-3 -11,-3l-27 0c-5,0 -8,1 -11,3 -2,1 -3,4 -4,7l0 123z"/>
     <path class="fil4" d="M7905 2870l47 79 53 0 -55 -92 50 -86 -52 0 -42 71c-2,4 -3,7 -4,11 0,8 1,14 3,17zm-4 -166l-45 0 0 245 45 0 0 -245z"/>
     <path class="fil4" d="M8069 2848l56 -21 0 -1c0,-4 -3,-6 -8,-7 -1,0 -2,0 -2,0l-32 0c-1,0 -2,0 -5,0 -4,2 -7,4 -8,6 -1,2 -1,3 -1,5l0 18zm-45 55l0 -90c0,-3 0,-6 1,-9 2,-11 7,-20 14,-25 7,-5 17,-8 29,-8l61 0c1,0 4,0 8,1 10,1 18,5 23,11 6,5 9,13 11,24 0,1 0,4 0,7l0 36 -102 38 0 4c0,3 1,6 3,9 1,2 4,3 6,3l93 0 0 45 -99 0c-7,0 -13,0 -16,-1 -4,0 -7,-2 -11,-4 -7,-4 -13,-9 -16,-16 -3,-6 -5,-14 -5,-25z"/>
     <polygon class="fil4" points="8199,2949 8244,2949 8244,2704 8199,2704 "/>
     <polygon class="fil4" points="8320,2949 8275,2949 8275,2704 8320,2704 8320,2771 8350,2771 8350,2816 8320,2816 "/>
    </g>
    <g>
     <polygon class="fil4" points="6913,2134 6862,2134 6862,1896 6913,1896 6913,1989 6984,1989 6984,1896 7035,1896 7035,2134 6984,2134 6984,2040 6913,2040 "/>
     <path class="fil4" d="M7110 2033l57 -21 0 -2c-1,-4 -4,-6 -9,-7 0,0 -1,0 -2,0l-31 0c-1,0 -3,0 -5,1 -4,1 -7,3 -9,6 0,1 -1,2 -1,4l0 19zm-44 55l0 -91c0,-3 0,-6 0,-9 3,-11 8,-19 15,-25 7,-5 16,-8 28,-8l61 0c2,0 5,1 8,1 11,2 19,5 24,11 6,6 9,14 10,24 0,2 0,4 0,8l0 35 -101 39 0 3c0,3 1,7 2,9 2,2 4,3 7,3l92 0 0 46 -98 0c-8,0 -13,-1 -16,-1 -4,-1 -8,-2 -11,-4 -8,-5 -13,-10 -17,-16 -3,-7 -4,-15 -4,-25z"/>
     <polygon class="fil4" points="7241,2134 7286,2134 7286,1889 7241,1889 "/>
     <polygon class="fil4" points="7361,2134 7316,2134 7316,1889 7361,1889 7361,1955 7391,1955 7391,2001 7361,2001 "/>
     <path class="fil4" d="M7548 2033l56 -21 0 -2c0,-4 -3,-6 -8,-7 -1,0 -1,0 -2,0l-32 0c-1,0 -2,0 -5,1 -4,1 -7,3 -8,6 -1,1 -1,2 -1,4l0 19zm-45 55l0 -91c0,-3 0,-6 1,-9 2,-11 7,-19 14,-25 7,-5 17,-8 29,-8l61 0c1,0 4,1 8,1 10,2 18,5 23,11 6,6 9,14 11,24 0,2 0,4 0,8l0 35 -102 39 0 3c0,3 1,7 3,9 1,2 4,3 6,3l93 0 0 46 -99 0c-7,0 -12,-1 -16,-1 -4,-1 -7,-2 -11,-4 -7,-5 -13,-10 -16,-16 -3,-7 -5,-15 -5,-25z"/>
     <path class="fil4" d="M7723 2134l-45 0 0 -136c0,-2 1,-5 1,-8 2,-12 6,-20 13,-26 7,-6 16,-9 29,-9l62 0c12,0 22,3 29,9 6,6 11,14 12,26 1,3 1,6 1,8l0 136 -45 0 0 -121c0,-1 0,-2 0,-2 -1,-4 -2,-6 -4,-8 -2,-2 -6,-2 -11,-2l-27 0c-5,0 -8,0 -11,2 -2,2 -3,4 -4,8l0 123z"/>
     <path class="fil4" d="M7905 2055l47 79 53 0 -55 -93 50 -86 -52 0 -42 71c-2,4 -3,8 -4,11 0,9 1,14 3,18zm-4 -166l-45 0 0 245 45 0 0 -245z"/>
     <path class="fil4" d="M8069 2033l56 -21 0 -2c0,-4 -3,-6 -8,-7 -1,0 -2,0 -2,0l-32 0c-1,0 -2,0 -5,1 -4,1 -7,3 -8,6 -1,1 -1,2 -1,4l0 19zm-45 55l0 -91c0,-3 0,-6 1,-9 2,-11 7,-19 14,-25 7,-5 17,-8 29,-8l61 0c1,0 4,1 8,1 10,2 18,5 23,11 6,6 9,14 11,24 0,2 0,4 0,8l0 35 -102 39 0 3c0,3 1,7 3,9 1,2 4,3 6,3l93 0 0 46 -99 0c-7,0 -13,-1 -16,-1 -4,-1 -7,-2 -11,-4 -7,-5 -13,-10 -16,-16 -3,-7 -5,-15 -5,-25z"/>
     <polygon class="fil4" points="8199,2134 8244,2134 8244,1889 8199,1889 "/>
     <polygon class="fil4" points="8320,2134 8275,2134 8275,1889 8320,1889 8320,1955 8350,1955 8350,2001 8320,2001 "/>
    </g>
    <g>
     <polygon class="fil4" points="6913,1318 6862,1318 6862,1080 6913,1080 6913,1173 6984,1173 6984,1080 7035,1080 7035,1318 6984,1318 6984,1224 6913,1224 "/>
     <path class="fil4" d="M7110 1217l57 -21 0 -2c-1,-3 -4,-6 -9,-6 0,-1 -1,-1 -2,-1l-31 0c-1,0 -3,1 -5,1 -4,1 -7,3 -9,6 0,1 -1,3 -1,5l0 18zm-44 55l0 -91c0,-3 0,-6 0,-8 3,-12 8,-20 15,-25 7,-6 16,-8 28,-8l61 0c2,0 5,0 8,0 11,2 19,6 24,11 6,6 9,14 10,24 0,2 0,4 0,8l0 36 -101 38 0 3c0,4 1,7 2,9 2,3 4,4 7,4l92 0 0 45 -98 0c-8,0 -13,0 -16,-1 -4,-1 -8,-2 -11,-4 -8,-4 -13,-10 -17,-16 -3,-6 -4,-15 -4,-25z"/>
     <polygon class="fil4" points="7241,1318 7286,1318 7286,1073 7241,1073 "/>
     <polygon class="fil4" points="7361,1318 7316,1318 7316,1073 7361,1073 7361,1140 7391,1140 7391,1185 7361,1185 "/>
     <path class="fil4" d="M7548 1217l56 -21 0 -2c0,-3 -3,-6 -8,-6 -1,-1 -1,-1 -2,-1l-32 0c-1,0 -2,1 -5,1 -4,1 -7,3 -8,6 -1,1 -1,3 -1,5l0 18zm-45 55l0 -91c0,-3 0,-6 1,-8 2,-12 7,-20 14,-25 7,-6 17,-8 29,-8l61 0c1,0 4,0 8,0 10,2 18,6 23,11 6,6 9,14 11,24 0,2 0,4 0,8l0 36 -102 38 0 3c0,4 1,7 3,9 1,3 4,4 6,4l93 0 0 45 -99 0c-7,0 -12,0 -16,-1 -4,-1 -7,-2 -11,-4 -7,-4 -13,-10 -16,-16 -3,-6 -5,-15 -5,-25z"/>
     <path class="fil4" d="M7723 1318l-45 0 0 -136c0,-2 1,-4 1,-8 2,-11 6,-20 13,-26 7,-5 16,-8 29,-8l62 0c12,0 22,3 29,8 6,6 11,15 12,26 1,4 1,6 1,8l0 136 -45 0 0 -121c0,-1 0,-1 0,-2 -1,-4 -2,-6 -4,-8 -2,-1 -6,-2 -11,-2l-27 0c-5,0 -8,1 -11,2 -2,2 -3,4 -4,8l0 123z"/>
     <path class="fil4" d="M7905 1239l47 79 53 0 -55 -92 50 -86 -52 0 -42 71c-2,3 -3,7 -4,11 0,8 1,14 3,17zm-4 -166l-45 0 0 245 45 0 0 -245z"/>
     <path class="fil4" d="M8069 1217l56 -21 0 -2c0,-3 -3,-6 -8,-6 -1,-1 -2,-1 -2,-1l-32 0c-1,0 -2,1 -5,1 -4,1 -7,3 -8,6 -1,1 -1,3 -1,5l0 18zm-45 55l0 -91c0,-3 0,-6 1,-8 2,-12 7,-20 14,-25 7,-6 17,-8 29,-8l61 0c1,0 4,0 8,0 10,2 18,6 23,11 6,6 9,14 11,24 0,2 0,4 0,8l0 36 -102 38 0 3c0,4 1,7 3,9 1,3 4,4 6,4l93 0 0 45 -99 0c-7,0 -13,0 -16,-1 -4,-1 -7,-2 -11,-4 -7,-4 -13,-10 -16,-16 -3,-6 -5,-15 -5,-25z"/>
     <polygon class="fil4" points="8199,1318 8244,1318 8244,1073 8199,1073 "/>
     <polygon class="fil4" points="8320,1318 8275,1318 8275,1073 8320,1073 8320,1140 8350,1140 8350,1185 8320,1185 "/>
    </g>
    <g>
     <polygon class="fil4" points="6913,502 6862,502 6862,265 6913,265 6913,358 6984,358 6984,265 7035,265 7035,502 6984,502 6984,409 6913,409 "/>
     <path class="fil4" d="M7110 401l57 -21 0 -1c-1,-4 -4,-6 -9,-7 0,0 -1,0 -2,0l-31 0c-1,0 -3,0 -5,1 -4,1 -7,3 -9,5 0,2 -1,3 -1,5l0 18zm-44 55l0 -90c0,-3 0,-6 0,-9 3,-11 8,-20 15,-25 7,-5 16,-8 28,-8l61 0c2,0 5,0 8,1 11,1 19,5 24,11 6,6 9,14 10,24 0,1 0,4 0,7l0 36 -101 39 0 3c0,3 1,6 2,9 2,2 4,3 7,3l92 0 0 45 -98 0c-8,0 -13,0 -16,-1 -4,0 -8,-2 -11,-4 -8,-4 -13,-9 -17,-15 -3,-7 -4,-15 -4,-26z"/>
     <polygon class="fil4" points="7241,502 7286,502 7286,257 7241,257 "/>
     <polygon class="fil4" points="7361,502 7316,502 7316,257 7361,257 7361,324 7391,324 7391,369 7361,369 "/>
     <path class="fil4" d="M7548 401l56 -21 0 -1c0,-4 -3,-6 -8,-7 -1,0 -1,0 -2,0l-32 0c-1,0 -2,0 -5,1 -4,1 -7,3 -8,5 -1,2 -1,3 -1,5l0 18zm-45 55l0 -90c0,-3 0,-6 1,-9 2,-11 7,-20 14,-25 7,-5 17,-8 29,-8l61 0c1,0 4,0 8,1 10,1 18,5 23,11 6,6 9,14 11,24 0,1 0,4 0,7l0 36 -102 39 0 3c0,3 1,6 3,9 1,2 4,3 6,3l93 0 0 45 -99 0c-7,0 -12,0 -16,-1 -4,0 -7,-2 -11,-4 -7,-4 -13,-9 -16,-15 -3,-7 -5,-15 -5,-26z"/>
     <path class="fil4" d="M7723 502l-45 0 0 -135c0,-2 1,-5 1,-8 2,-12 6,-21 13,-26 7,-6 16,-9 29,-9l62 0c12,0 22,3 29,9 6,6 11,14 12,25 1,4 1,7 1,9l0 135 -45 0 0 -120c0,-1 0,-2 0,-3 -1,-3 -2,-6 -4,-7 -2,-2 -6,-3 -11,-3l-27 0c-5,0 -8,1 -11,3 -2,1 -3,4 -4,7l0 123z"/>
     <path class="fil4" d="M7905 424l47 78 53 0 -55 -92 50 -86 -52 0 -42 71c-2,4 -3,7 -4,11 0,8 1,14 3,18zm-4 -167l-45 0 0 245 45 0 0 -245z"/>
     <path class="fil4" d="M8069 401l56 -21 0 -1c0,-4 -3,-6 -8,-7 -1,0 -2,0 -2,0l-32 0c-1,0 -2,0 -5,1 -4,1 -7,3 -8,5 -1,2 -1,3 -1,5l0 18zm-45 55l0 -90c0,-3 0,-6 1,-9 2,-11 7,-20 14,-25 7,-5 17,-8 29,-8l61 0c1,0 4,0 8,1 10,1 18,5 23,11 6,6 9,14 11,24 0,1 0,4 0,7l0 36 -102 39 0 3c0,3 1,6 3,9 1,2 4,3 6,3l93 0 0 45 -99 0c-7,0 -13,0 -16,-1 -4,0 -7,-2 -11,-4 -7,-4 -13,-9 -16,-15 -3,-7 -5,-15 -5,-26z"/>
     <polygon class="fil4" points="8199,502 8244,502 8244,257 8199,257 "/>
     <polygon class="fil4" points="8320,502 8275,502 8275,257 8320,257 8320,324 8350,324 8350,369 8320,369 "/>
    </g>
   </g>
   <polygon class="fil5" points="1354,3209 1454,3189 1555,3456 1162,3604 1062,3337 1150,3286 1096,3145 719,3287 773,3428 873,3408 1170,4194 1081,4245 1135,4387 1512,4244 1458,4103 1358,4123 1227,3777 1620,3629 1751,3975 1663,4026 1716,4167 2093,4025 2040,3884 1939,3903 1643,3118 1731,3066 1678,2925 1301,3067 "/>
   <path id="1" class="fil5" d="M2328 3242c31,-11 62,0 75,35 10,26 2,53 -26,72l-171 119 -39 -102c-11,-32 3,-64 35,-76l126 -48zm443 533l-65 -173 -283 107c-60,23 -117,3 -149,-61l207 -141c90,-61 161,-168 111,-302 -51,-133 -184,-191 -322,-139l-157 60c-126,47 -182,184 -134,311l98 259c62,163 248,248 411,186l283 -107z"/>
   <polygon id="2" class="fil5" points="2491,2700 2591,2680 2917,3545 2829,3596 2883,3737 3260,3595 3206,3454 3106,3473 2720,2452 2438,2559 "/>
   <path id="3" class="fil5" d="M3165 2915l145 385c50,134 194,205 328,155l125 -48 -65 -172 -102 38c-39,15 -83,-5 -98,-44l-139 -369 151 -75 -59 -157 -157 59 -119 -314 -171 64 101 321 -94 36 53 141 101 -20z"/>
   <path id="4" class="fil5" d="M4312 2505c31,-12 62,0 75,35 11,26 2,52 -26,72l-171 118 -38 -102c-12,-31 2,-63 34,-75l126 -48zm443 533l-65 -173 -283 107c-60,22 -117,3 -149,-61l208 -141c90,-61 160,-168 110,-302 -50,-133 -184,-191 -322,-139l-157 60c-126,47 -182,183 -134,310l98 260c62,163 248,247 411,186l283 -107z"/>
   <path id="5" class="fil5" d="M5360 2167c-47,-125 -190,-179 -319,-131l-62 24c-55,21 -102,65 -124,101l-49 -36 -236 89 53 142 101 -20 178 471 -89 52 54 141 377 -142 -54 -142 -100 20 -127 -338c-27,-70 10,-138 81,-165l47 -18c39,-14 75,8 87,39l148 393 -89 51 54 142 377 -142 -53 -142 -101 20 -154 -409z"/>
   <polygon id="6" class="fil5" points="6019,2104 6171,1795 6244,1749 6190,1608 5813,1750 5867,1892 5937,1878 5834,2092 5571,1393 5288,1500 5341,1641 5441,1621 5768,2486 5679,2537 5733,2678 6110,2536 6057,2395 5956,2414 5891,2241 6298,2465 6487,2393 6434,2252 6333,2272 "/>
   <path id="7" class="fil5" d="M6690 1622c31,-12 62,-1 75,34 10,27 2,53 -26,73l-171 118 -39 -102c-11,-32 3,-64 35,-76l126 -47zm443 533l-65 -173 -283 106c-60,23 -118,3 -149,-60l207 -141c90,-61 161,-169 111,-302 -51,-134 -184,-191 -322,-139l-157 59c-126,48 -182,184 -134,311l98 259c61,164 248,248 411,186l283 -106z"/>
   <polygon id="8" class="fil5" points="6853,1080 6953,1060 7279,1924 7191,1975 7245,2117 7622,1974 7568,1833 7468,1853 7082,831 6800,938 "/>
   <path id="9" class="fil5" d="M7527 1295l145 385c50,133 194,205 328,154l125 -47 -65 -173 -102 38c-39,15 -83,-4 -98,-43l-139 -370 151 -75 -59 -157 -157 59 -119 -314 -171 65 101 320 -94 36 53 141 101 -19z"/>
  </g>
  <path class="fil6" d="M6521 5052c0,14 -10,24 -24,24l-29 0c-14,0 -24,-10 -24,-24l0 -112c0,-14 10,-24 24,-24l29 0c14,0 24,10 24,24l0 112zm40 -109c0,-34 -29,-63 -64,-63l-29 0c-35,0 -63,29 -63,63l0 106c0,35 28,63 63,63l29 0c35,0 64,-28 64,-63l0 -106z"/>
  <polygon class="fil6" points="6580,4920 6607,4916 6607,5079 6587,5082 6587,5112 6667,5112 6667,5082 6647,5079 6647,4880 6580,4887 "/>
  <path class="fil6" d="M6839 4941c0,-33 -27,-61 -61,-61l-85 0 0 56 30 0 3 -20 50 0c12,0 23,11 23,24l0 10c0,11 -9,20 -20,23l-43 11c-30,8 -53,37 -53,72l0 56 150 0 0 -36 -110 0 0 -20c0,-20 12,-33 30,-38l41 -12c24,-7 45,-32 45,-58l0 -7z"/>
  <path class="fil6" d="M6962 4950c0,12 -11,23 -23,23l-53 0 0 36 49 0c18,0 30,13 30,30l0 7c0,17 -12,30 -30,30l-79 0 0 36 79 0c40,0 70,-31 70,-69 0,-19 -8,-40 -23,-52 13,-12 20,-31 20,-48 0,-33 -27,-63 -63,-63l-83 0 0 56 30 0 3 -20 50 0c12,0 23,10 23,24l0 10z"/>
  <polygon class="fil6" points="7119,5079 7100,5082 7100,5112 7179,5112 7179,5082 7159,5079 7159,5049 7189,5049 7189,5013 7159,5013 7159,4953 7119,4953 7119,5013 7078,5013 7151,4880 7106,4880 7015,5049 7119,5049 "/>
  <path class="fil6" d="M7249 4916l60 0 3 20 30 0 0 -56 -133 0 0 129 73 0c20,0 33,12 33,30l0 7c0,18 -13,30 -33,30l-73 0 0 36 73 0c40,0 73,-30 73,-69 0,-40 -33,-70 -73,-70l-33 0 0 -57z"/>
  <path class="fil6" d="M7488 4916l3 20 30 0 0 -56 -76 0c-35,0 -67,28 -67,63l0 103c0,38 35,66 73,66l13 0c39,0 70,-30 70,-69 0,-40 -31,-70 -70,-70l-46 0 0 -30c0,-14 12,-27 27,-27l43 0zm-37 160c-18,0 -33,-14 -33,-32l0 -35 46 0c18,0 30,13 30,30l0 7c0,17 -12,30 -30,30l-13 0z"/>
  <polygon class="fil6" points="7551,4880 7551,4936 7581,4936 7584,4916 7646,4916 7551,5112 7594,5112 7707,4880 "/>
  <path class="fil6" d="M7783 4880c-37,0 -63,28 -63,63 0,18 7,36 19,48 -16,15 -22,33 -22,52 0,38 31,69 69,69l23 0c39,0 70,-31 70,-69 0,-19 -6,-37 -23,-52 13,-12 20,-30 20,-48 0,-35 -27,-63 -63,-63l-30 0zm3 196c-17,0 -30,-13 -30,-30l0 -7c0,-17 13,-30 30,-30l23 0c18,0 30,13 30,30l0 7c0,17 -12,30 -30,30l-23 0zm-3 -103c-13,0 -23,-10 -23,-23l0 -10c0,-14 10,-24 23,-24l30 0c13,0 23,10 23,24l0 10c0,13 -10,23 -23,23l-30 0z"/>
  <path class="fil6" d="M8055 4948c0,-39 -33,-68 -71,-68l-15 0c-40,0 -70,33 -70,71 0,38 31,72 70,72l46 0 0 21c0,18 -12,32 -30,32l-73 0 0 36 73 0c38,0 70,-29 70,-68l0 -96zm-71 -32c18,0 31,14 31,32l0 38 -46 0c-18,0 -30,-12 -30,-30l0 -8c0,-18 13,-32 30,-32l15 0z"/>
 </g>
</svg>
