<svg id="Layer_1" data-name="Layer 1" xmlns="http://www.w3.org/2000/svg" viewBox="0 0 400 115"><defs><style>.cls-1{fill:#cee196;}.cls-2{fill:#97c62b;}</style></defs><title>Artboard 1</title><path d="M19.12,26.85c5.68,0,17.18.73,26.06,3.22v8.19S33,37.61,23.29,37.61c-6.86,0-10.61.71-10.61,19.1,0,15.53,2.75,18.48,10.61,18.48,10.05,0,22.65-1.09,22.65-1.09v8.34C37.32,86.1,28.19,85.84,19.12,86,8.3,86,0,80.85,0,56.35S8,26.85,19.12,26.85Z"/><path d="M77.86,26.85c19.82,0,26.14,7.32,26.14,30.37C104,78.74,97.87,86,77.86,86,58,86,51.72,78,51.72,57.22,51.72,33.52,58.47,26.85,77.86,26.85Zm0,48.34c9.77,0,13.46-1.3,13.46-18,0-17.89-3-19.61-13.46-19.61-10.21,0-13.46,1.69-13.46,19.61C64.39,73.81,68.59,75.19,77.86,75.19Z"/><path d="M112.51,27.4h9.89l2.79,6.39c5.59-3.67,10.65-7.37,19.5-7.37,12.8,0,17.53,9.19,17.53,19.72V85.41H149.55V46c0-6.29-3.19-8.81-7.65-8.81-7.1,0-10.78,1.8-16.71,5.46V85.41H112.51Z"/><path d="M170.8,10.19a2.44,2.44,0,0,1,2.62-2.73h9.29a2.47,2.47,0,0,1,2.51,2.73V18.5A2.3,2.3,0,0,1,182.71,21h-9.29a2.44,2.44,0,0,1-2.62-2.51Zm.86,17.21h12.67V85.84c.11,9.39-.11,20.4-3.6,29.06h-9.07Z"/><path d="M236.45,63.85c-4.81-3.06-6.37-10.24-6.37-16,0-13.87,7.1-20.65,19.66-20.65h34.85v8l-7.32,2c1.09,2.37,2.62,4.47,2.62,11.8,0,7.7-3.12,20.16-19.17,20.16H246c-1.75,0-4.44.17-4.44,2.82s2,3.22,4.44,3.22h19.79c10,0,16,5.66,16,16.41v6.5c0,7.7-3.22,16.82-17.53,16.82H247.88c-10.27,0-17.86-5.39-17.86-16.82V90l4.83-6c-3.06-1.88-5-5.75-5-10.34C229.81,69.51,231.81,65.11,236.45,63.85Zm14.07,40.29h11.72c5.83,0,6.93-3,6.93-7.06v-5c0-3.95-1.27-6.09-6.32-6.12H247.45a20.53,20.53,0,0,1-4.72-.57v11.5C242.73,103.45,246.69,104.14,250.52,104.14Zm.37-45.77h7.8c6.87,0,8.67-5.33,8.53-10.54-.21-6.62-2.08-9.89-8.64-9.89h-7.31c-7.2,0-8.52,4.95-8.52,9.89C242.74,53.18,244.38,58.37,250.88,58.37Z"/><path d="M314.81,26.85c19.82,0,26.14,7.32,26.14,30.37,0,21.52-6.12,28.73-26.14,28.73-19.86,0-26.14-8-26.14-28.73C288.67,33.52,295.42,26.85,314.81,26.85Zm0,48.34c9.77,0,13.46-1.3,13.46-18,0-17.89-3-19.61-13.46-19.61-10.21,0-13.46,1.69-13.46,19.61C301.34,73.81,305.54,75.19,314.81,75.19Z"/><path d="M208.69,27.4V70.17c-5.93,3.66-9.61,5.46-16.71,5.46a8.16,8.16,0,0,1-4.21-1V86.33c.47,0,.93.07,1.42.07,8.85,0,13.41-3.78,19.5-7.37l2.79,6.39h9.89v-58Z"/><path class="cls-1" d="M400,24.05a50.52,50.52,0,0,0-22,8.47l-3.26-8.47a50.56,50.56,0,0,1,22-8.47Z"/><path class="cls-1" d="M382.52,0a50.54,50.54,0,0,0,1.25,23.57l-9.07.48A50.56,50.56,0,0,1,373.46.48Z"/><path class="cls-1" d="M354.25,9.19a50.54,50.54,0,0,0,22.8,6.09l-2.34,8.77A50.52,50.52,0,0,1,351.9,18Z"/><path class="cls-1" d="M354.25,38.92a50.53,50.53,0,0,0,12.84-19.8l7.62,4.94a50.57,50.57,0,0,1-12.84,19.81Z"/><path class="cls-1" d="M382.53,48.1a50.59,50.59,0,0,0-14.87-18.33l7.05-5.72a50.6,50.6,0,0,1,14.87,18.34Z"/><path class="cls-2" d="M400,24.05a50.56,50.56,0,0,1-22,8.47l-3.26-8.47a50.55,50.55,0,0,0,22-8.47Z"/><path class="cls-2" d="M382.52,0a50.58,50.58,0,0,1,1.25,23.57l-9.07.48A50.56,50.56,0,0,0,373.46.48Z"/><path class="cls-2" d="M354.25,9.19a50.58,50.58,0,0,1,22.8,6.09l-2.34,8.77A50.64,50.64,0,0,0,351.9,18Z"/><path class="cls-2" d="M354.25,38.92a50.58,50.58,0,0,1,12.84-19.8l7.62,4.94a50.58,50.58,0,0,0-12.84,19.81Z"/><path class="cls-2" d="M382.53,48.1a50.53,50.53,0,0,1-14.87-18.33l7.05-5.72a50.6,50.6,0,0,0,14.87,18.34Z"/></svg>